<svg width="50" viewBox="65 93 168 168" fill="none" xmlns="http://www.w3.org/2000/svg">
<path d="M80.6186 165.8C80.9566 161.695 81.8864 157.66 83.379 153.819C84.0718 152.297 84.7175 150.528 85.3005 148.878C85.8834 147.228 86.7527 145.736 87.4337 144.153L88.521 141.786L89.8456 139.545C90.2292 138.98 90.6795 138.316 90.4343 138.15C90.1892 137.983 90.5453 137.723 90.7292 137.399C91.7755 135.583 93.0129 133.884 94.4202 132.331C94.8674 131.693 95.3771 131.101 95.9418 130.564C96.1136 130.377 96.2569 130.166 96.3672 129.938C96.5998 129.425 96.9186 128.955 97.3095 128.55C97.5514 128.193 97.6765 128.009 97.7516 127.898C97.7424 127.121 98.2423 126.437 100.093 124.607C100.441 124.231 100.822 123.89 101.234 123.586C101.52 123.35 101.81 123.134 101.883 123.184C101.957 123.234 101.861 123.402 101.575 123.638C101.289 123.875 101.268 123.932 101.114 124.079C100.961 124.226 100.753 124.48 100.806 124.534C100.859 124.588 101.116 124.367 101.327 124.188C101.668 123.85 102.038 123.542 102.434 123.27C102.603 123.152 102.914 122.879 102.805 123.092C102.486 123.773 103.32 123.046 104.02 122.463C104.721 121.88 105.422 121.243 106.127 120.626C106.834 120.045 107.583 119.516 108.366 119.042C106.66 120.289 105.231 121.867 103.564 123.32C103.403 123.444 103.254 123.583 103.12 123.736C102.559 124.378 101.871 124.916 101.33 125.608C100.789 126.299 100.15 126.924 99.5476 127.574C98.2739 128.807 97.111 130.15 96.0721 131.586C95.936 131.828 95.7798 132.058 95.6051 132.274C94.7514 133.18 93.949 134.133 93.2014 135.129L92.6677 135.915L92.1869 136.755L91.2543 138.419C90.6406 139.559 89.9374 140.648 89.1512 141.676C88.6511 142.44 88.2262 143.252 87.8825 144.099C87.2324 145.452 86.6496 146.653 86.0044 147.92C85.5547 149.016 85.1801 150.141 84.8832 151.287C84.7943 151.55 84.7546 151.846 84.6829 152.03C84.244 153.031 83.8837 154.065 83.6054 155.121C83.3899 156.178 83.195 157.23 82.9427 158.261C82.7508 158.992 82.5256 159.772 82.3592 160.413L82.0412 161.436C81.9681 161.781 81.8704 162.109 81.7811 162.426C81.5922 163.072 81.4932 163.742 81.4869 164.415C81.4839 165.199 81.3544 165.978 81.1035 166.721C80.7327 167.956 80.6019 169.25 80.7183 170.534C80.7691 171.699 80.7664 172.864 80.7432 174.032C80.7199 175.201 80.9266 176.4 80.9117 177.556C80.8968 178.713 81.0702 179.961 81.0308 181.101C80.9913 182.241 81.2476 183.42 81.4009 184.618C81.5542 185.817 81.5927 186.974 81.7666 188.169C81.9405 189.364 82.2424 190.502 82.5232 191.697L83.1597 194.427L83.995 197.022C84.5655 198.968 85.2804 200.869 86.1337 202.709C86.5602 203.716 87.0745 204.568 87.5677 205.477L88.2659 206.902L89.1165 208.287C89.5695 209.097 90.0157 209.759 90.2467 209.682C90.4777 209.606 90.3258 209.144 89.7845 208.094L89.4648 207.536C89.3393 207.326 89.157 207.04 89.2232 206.995L89.5232 207.45C90.3548 208.679 91.0995 209.956 91.8359 211.246L92.3738 212.221L93.0067 213.135L94.281 214.951L95.474 216.677C95.8466 217.276 96.2721 217.841 96.7454 218.365C97.8069 219.624 98.9008 220.941 100.099 222.131L100.714 222.782L101.382 223.379L102.687 224.624C103.493 225.441 104.325 226.221 105.132 226.984C105.965 227.725 106.851 228.404 107.782 229.016C109.512 230.341 111.356 231.509 113.293 232.506C114.144 232.94 114.787 233.286 114.849 233.67C115.292 234.248 115.86 234.719 116.51 235.048C117.477 235.633 118.482 236.153 119.518 236.606L122.593 238.065C123.547 238.51 124.527 238.899 125.526 239.231L128.505 240.356C129.309 240.686 130.149 240.919 131.007 241.049C131.837 241.2 132.609 241.329 133.536 241.599C133.864 241.696 134.275 241.724 134.292 241.646C134.309 241.568 135.193 241.611 136.075 241.816C137.491 242.077 138.925 242.207 140.338 242.448C141.753 242.716 143.187 242.88 144.627 242.937C146.555 242.972 148.486 243.187 150.411 243.148C152.336 243.109 154.257 242.996 156.194 242.965C158.463 242.71 160.756 242.472 163.075 242.036C165.394 241.601 167.608 241.004 169.827 240.321C171.49 239.745 173.148 239.148 174.904 238.724C176.494 238.235 178.026 237.572 179.471 236.746C181.582 235.72 183.658 234.456 185.693 233.252C186.034 233.061 186.387 232.893 186.75 232.75C187.434 232.447 188.073 232.055 188.653 231.583C189.817 230.686 190.968 229.888 192.114 229.123C193.26 228.357 194.284 227.456 195.361 226.661C196.882 225.45 198.335 224.786 199.508 223.823C199.902 223.534 200.236 223.438 199.876 224.073C199.516 224.708 199.888 224.53 200.268 224.339L203.406 222.539L205.064 221.601C205.633 221.24 206.178 220.842 206.696 220.411C207.094 220.089 207.416 219.931 207.509 220.084C207.602 220.237 207.693 220.209 207.887 220.107C208.787 219.731 209.362 219.781 208.721 221.517C208.579 221.726 208.66 221.87 208.759 221.883C209.437 221.913 209.715 222.532 210.977 221.756C211.771 221.272 212.61 220.747 212.712 221.283C212.743 221.501 213.132 221.245 213.504 221.013C214.146 220.581 214.861 220.27 215.614 220.094C216.332 219.882 216.783 220.008 216.456 221.15C216.303 221.692 216.579 221.628 216.946 221.483C217.814 221.049 217.541 222.084 216.14 224.148C214.972 225.868 214.211 227.253 213.326 228.663C211.603 231.187 209.705 233.586 207.645 235.844C207.347 236.125 207.002 236.501 206.761 236.697C205.27 237.829 203.881 239.09 202.61 240.465C202.496 240.594 202.372 240.714 202.24 240.824C200.084 242.34 198.029 243.888 195.987 245.445C193.945 247.002 191.705 248.192 189.591 249.592C187.476 250.992 184.736 252.021 182.294 253.217C179.853 254.413 177.194 255.138 174.648 256.066C172.421 256.771 170.159 257.356 167.87 257.818C167.286 257.932 166.707 258.079 166.139 258.258C164.418 258.701 162.66 258.985 160.888 259.108C159.699 259.198 158.583 259.338 157.417 259.498C156.252 259.658 155.112 259.728 154.042 259.827C153.113 259.935 152.179 259.99 151.244 259.992C149.41 260.056 147.541 259.775 145.671 259.654C145.436 259.646 145.203 259.62 144.973 259.575C143.505 259.099 141.341 259.173 139.313 258.784C138.37 258.534 137.386 258.477 136.42 258.614C135.825 258.734 135.214 258.739 134.618 258.629C134.216 258.589 133.797 258.52 133.378 258.452C132.972 258.342 132.572 258.208 132.181 258.052C130.538 257.402 128.855 256.858 127.142 256.426C126.639 256.311 126.148 256.152 125.674 255.95C124.097 255.169 122.465 254.505 120.791 253.963C119.258 253.371 117.82 252.825 116.301 252.135C115.925 251.974 115.584 251.742 115.295 251.453C114.334 250.718 113.301 250.083 112.212 249.557C111.855 249.32 111.454 249.158 111.033 249.079C110.899 249.276 109.87 248.972 110.015 249.286C110.16 249.599 109.376 249.462 109.48 249.784C109.584 250.106 109.167 249.769 108.787 249.565C108.402 249.399 108.053 249.162 107.757 248.866C106.958 247.938 106.004 247.156 104.937 246.556C104.338 246.152 103.763 245.713 103.214 245.243C102.538 244.615 101.752 244.118 100.896 243.777C100.651 243.698 100.417 243.593 100.195 243.463C98.9274 242.681 97.619 241.967 96.2757 241.323C95.4762 240.979 94.7912 240.414 94.3006 239.695C93.6911 238.904 93.0036 238.097 93.0478 237.768C92.6616 237.01 92.1588 236.317 91.5578 235.715C91.1964 235.315 90.9008 234.86 90.6821 234.367C90.4613 233.902 90.1881 233.463 89.8678 233.061C89.3849 232.372 88.8668 231.709 88.3154 231.074C87.1111 229.682 85.9191 228.298 84.785 226.882L81.751 222.382L80.5145 220.484C80.0968 219.859 79.7825 219.161 79.4104 218.496C78.7073 217.157 78.0009 215.744 77.1414 214.425C76.4424 213.246 75.8907 211.986 75.4986 210.672C74.8731 208.955 74.2226 207.275 73.5972 205.558C72.9717 203.842 72.4713 201.941 71.7654 200.026C71.6169 199.638 71.4409 199.106 71.3277 198.903C70.6853 197.447 70.2124 195.922 69.9185 194.357L69.0011 190.432C68.7915 189.106 68.5568 187.816 68.2598 186.591C68.1548 186.129 68.0972 185.657 68.0879 185.182C68.0503 184.367 67.9876 183.589 67.9128 182.802C67.8887 181.966 67.8086 181.132 67.6729 180.306C67.4217 178.398 67.3983 176.467 67.6033 174.552L67.6951 174.417C68.0814 174.877 68.0004 172.991 68.1124 172.008C68.189 171.289 68.221 170.503 68.3462 169.87C68.4714 169.237 68.6622 169.061 68.6527 170.078C68.6432 171.094 68.6524 171.872 68.586 172.814C68.5196 173.756 68.4807 174.394 68.4732 175.196L68.615 177.626C68.6546 178.366 68.6242 179.109 68.5244 179.843C68.3368 180.877 68.254 181.927 68.2771 182.978C68.5093 184.535 68.7827 186.085 68.9197 187.703C68.9524 188.58 69.2031 189.435 69.649 190.19C70.0599 190.667 70.0104 190.687 69.8395 189.171C69.5643 186.938 69.2891 184.706 69.0055 182.485C68.9546 181.769 68.8792 181.035 69.1298 181.511C69.3803 181.986 69.4315 180.908 69.4121 179.908C69.3648 178.368 69.3788 176.87 69.3683 175.355C69.3577 173.841 69.6184 172.349 69.5638 170.714C69.5638 170.273 69.6162 169.832 69.72 169.403C70.126 166.879 70.6229 163.878 70.9834 160.946C71.0399 160.626 71.0429 160.305 70.9728 160.329C70.9026 160.353 70.7476 160.66 70.7608 161.01C70.6321 162.018 70.4098 162.926 70.2649 163.904C70.2173 164.159 70.1451 164.397 70.1089 164.319C70.0726 164.24 70.1457 163.895 70.1806 163.685L70.7864 160.023C70.9461 158.785 71.3519 157.607 71.614 156.403C72.1419 153.979 72.8137 151.589 73.6261 149.244C73.9769 148.226 74.3189 147.274 74.76 146.281C75.0667 145.592 75.3243 144.87 75.5696 144.139C75.815 143.408 76.1584 142.744 76.5067 141.993C77.3423 140.156 78.1533 138.302 79.0212 136.522C79.8891 134.742 81.1057 133.055 82.236 131.364C82.6029 130.823 82.9699 130.283 83.2387 129.676C84.0727 128.447 84.9067 127.219 85.851 126.065C86.5348 125.058 87.3089 124.076 88.0173 123.085C88.4092 122.508 88.4009 122.52 88.0826 122.699C86.707 123.997 85.4971 125.46 84.4805 127.055C84.1308 127.724 83.7055 128.351 83.2129 128.922C82.6255 129.676 82.133 130.499 81.7465 131.373C81.2166 132.441 80.6177 133.473 79.9534 134.463C79.2843 135.373 78.6699 136.322 78.1133 137.305C77.8548 137.686 77.713 137.895 77.8612 137.439C78.2925 136.171 78.4005 135.616 78.7131 134.733C79.106 133.683 79.6132 132.679 80.2256 131.74C81.0252 130.343 81.9014 128.99 82.8502 127.689C83.8343 126.24 83.8426 126.227 83.6264 126.045C83.6264 126.045 83.6862 125.798 83.9599 125.553C86.5532 121.985 89.4564 118.653 92.6356 115.596C94.1856 114.315 95.6999 112.902 97.2577 111.663C97.4614 111.46 97.6896 111.283 97.937 111.137C98.0935 111.117 97.7452 111.419 97.5117 111.763C97.2782 112.107 96.7902 112.404 96.9711 112.401C97.2196 112.263 97.4492 112.093 97.6544 111.896L98.8552 110.576C99.3644 110.221 99.8362 109.896 100.216 109.705C102.176 108.612 104.189 107.018 106.231 105.91L106.855 105.597C106.675 105.735 106.484 105.857 106.284 105.964C105.757 106.224 105.254 106.531 104.783 106.883C104.29 107.194 103.845 107.575 103.46 108.013C103.528 108.31 102.621 108.933 101.76 109.568C101.374 109.83 101.012 110.124 100.678 110.449C99.7855 111.369 98.5047 112.437 97.2569 113.511C96.6196 114.035 96.0092 114.591 95.4277 115.176C95.2693 115.41 94.9299 115.646 94.9745 115.712C95.0191 115.778 95.3217 115.517 95.5454 115.346C95.7691 115.175 96.2243 114.873 96.6304 114.539C97.8444 113.568 98.9726 112.54 100.248 111.611C101.523 110.682 102.78 109.938 104.03 109.153C104.7 108.746 105.391 108.282 106.161 107.728C106.931 107.174 107.741 106.773 108.51 106.326L109.969 105.522C110.134 105.419 110.314 105.342 110.502 105.291C110.502 105.291 110.435 105.389 110.351 105.512C110.268 105.635 109.912 105.842 109.656 106.009C108.931 106.522 109.15 106.438 109.828 106.126C110.505 105.814 111.373 105.38 112.162 104.982L113.352 104.337L114.653 103.766L118.155 102.142C119.29 101.58 120.46 101.091 121.656 100.678L125.238 99.4121C126.421 98.9561 127.634 98.5801 128.867 98.2867L133.129 97.2852C133.834 97.1176 134.547 96.9377 135.255 96.7907L137.426 96.4693L141.778 95.8348C143.208 95.6026 144.663 95.6751 146.107 95.5788C152.849 95.26 159.603 95.8318 166.193 97.2793C167.903 97.7406 169.668 98.1488 171.407 98.5939C171.592 98.641 171.774 98.6987 171.952 98.7666C171.952 98.7666 171.677 98.7769 171.451 98.7135L167.221 97.6368C165.324 97.157 163.395 96.8071 161.449 96.5898L158.554 96.1856C157.602 96.0714 156.643 96.0203 155.685 96.0326C153.472 96.0203 151.505 95.7259 149.44 95.7599C148.058 95.7908 146.672 95.8546 145.298 95.9268C144.207 96.0298 143.097 95.9763 142.014 96.174L138.761 96.5862C138.068 96.6838 137.381 96.816 136.701 96.9825C136.166 97.1066 135.624 97.2001 135.078 97.2626C134.013 97.4254 132.966 97.6948 131.954 98.0667C131.207 98.3498 130.422 98.5188 129.625 98.568C129.09 98.5969 128.558 98.6743 128.036 98.7991C127.425 98.9896 126.827 99.2188 126.245 99.4854C123.82 100.603 121.156 101.415 118.418 102.625C117.977 102.785 117.545 102.972 117.126 103.184L114.936 104.246L113.85 104.764L112.804 105.382L108.578 107.808C107.526 108.4 106.531 109.088 105.606 109.864C104.877 110.41 104.743 110.66 104.667 110.878C104.375 111.339 103.962 111.71 103.473 111.952C102.732 112.436 102.082 112.946 101.46 113.439C100.839 113.932 100.331 114.575 99.7009 115.134C99.5341 115.38 99.4007 115.576 99.3923 115.588C99.384 115.601 99.6523 115.496 99.8882 115.333C100.124 115.17 100.505 114.872 100.779 114.627C101.687 113.813 102.65 113.064 103.662 112.385C104.697 111.652 105.753 110.915 106.8 110.137C107.545 109.56 108.337 109.047 109.167 108.603L111.602 107.205L114.033 105.84C114.876 105.443 115.751 105.104 116.577 104.731C117.695 104.27 118.757 103.735 119.815 103.232C120.952 102.679 122.132 102.22 123.344 101.859L126.936 100.709C127.957 100.362 128.999 100.087 130.057 99.8841L133.078 99.1534C138.299 97.9379 143.637 97.3121 148.994 97.2876C150.548 97.2401 152.104 97.2833 153.653 97.4168C155.21 97.523 156.76 97.5345 158.313 97.7271L160.896 98.1702C161.099 98.1769 161.3 98.2216 161.487 98.3022L160.809 98.2189C157.717 97.7351 154.574 97.7735 151.443 97.5857L150.267 97.5234L149.09 97.5682L146.7 97.7398C145.128 97.8393 143.549 97.7905 142.005 98.0342C139.538 98.4234 137.048 98.6354 134.613 99.1359C132.177 99.6364 129.733 100.203 127.358 100.959L121.631 102.958C119.757 103.713 117.919 104.601 116.065 105.406C115.373 105.685 114.7 106.007 114.049 106.371C113.42 106.738 112.812 107.14 112.228 107.576C111.454 108.105 110.652 108.59 109.825 109.031C109.556 109.19 109.105 109.512 109.105 109.512C109.105 109.512 109.514 109.358 109.766 109.224L114.268 106.681C115.813 105.935 117.456 105.256 119.038 104.535C119.777 104.173 120.535 103.849 121.309 103.564C120.601 104.026 119.856 104.426 119.081 104.762C117.883 105.313 116.833 105.964 115.565 106.485C115.476 106.522 115.395 106.578 115.329 106.648C115.329 106.648 115.44 106.723 115.56 106.625C116.368 106.22 117.231 105.935 118.121 105.78C118.545 105.666 118.955 105.505 119.343 105.299C119.909 105.019 120.487 104.748 121.012 104.476C122.921 103.588 124.913 102.89 126.958 102.392C128.736 101.805 130.956 101.356 132.981 100.828C134.05 100.511 135.149 100.307 136.26 100.218C136.997 100.201 137.73 100.096 138.442 99.9051C139.232 99.6822 140.042 99.5407 140.86 99.4827C142.753 99.2307 144.666 99.1704 146.57 99.3028C147.105 99.32 147.64 99.3061 148.174 99.2612L150.067 99.1106C150.709 99.1153 151.358 99.1613 152.003 99.1867L155.9 99.409C157.2 99.4674 158.494 99.6256 159.769 99.8822L163.675 100.487L164.832 100.681L165.985 101.015L168.245 101.669L168.527 101.861C168.409 101.858 168.292 101.844 168.177 101.821L165.084 101.049C164.029 100.836 162.932 100.737 161.856 100.527C160.489 100.299 159.117 100.104 157.758 99.9167C156.399 99.7296 154.999 99.8386 153.664 99.7217C152.328 99.6048 151.285 99.5065 150.014 99.5053L146.427 99.6721L144.229 99.7958C143.494 99.8039 142.761 99.87 142.036 99.9935L137.683 100.628C136.695 100.765 135.698 100.914 134.722 101.112C134.347 101.164 133.977 101.243 133.613 101.347C131.944 101.829 130.252 102.225 128.544 102.536C126.717 103.09 124.939 103.678 123.086 104.376C122.097 104.71 121.132 105.11 120.196 105.573L117.333 106.967C115.421 107.812 113.584 108.815 111.84 109.968C110.785 110.652 109.678 111.121 108.627 111.772C107.55 112.455 106.525 113.216 105.559 114.05C106.616 113.537 107.606 112.895 108.505 112.137C110.454 110.876 112.524 109.805 114.476 108.617C115.485 108.06 116.529 107.57 117.603 107.151L120.791 105.725C122.062 105.16 123.368 104.673 124.699 104.269L128.631 102.882C130.367 102.409 132.064 102.072 133.791 101.665C133.974 101.616 134.162 101.587 134.351 101.579C134.351 101.579 133.963 101.728 133.699 101.8L129.742 102.829C128.873 102.969 128.043 103.293 127.307 103.778C127.066 103.909 126.817 104.021 126.559 104.114C126.064 104.316 125.149 104.556 125.188 104.709C125.228 104.861 126.161 104.489 126.606 104.415C127.44 104.257 128.256 104.01 129.039 103.679C129.692 103.494 130.356 103.345 131.025 103.233C132.772 102.929 134.397 102.382 136.087 101.95C136.927 101.82 137.422 101.671 136.633 101.62C135.844 101.569 136.207 101.51 136.858 101.289C138.427 100.836 140.031 100.52 141.654 100.345C142.983 100.174 144.322 100.088 145.662 100.086C146.987 100.034 148.323 99.9908 149.644 99.9717C149.932 99.9517 150.222 99.9676 150.507 100.019C152.445 100.399 154.411 100.617 156.386 100.672C156.748 100.652 157.11 100.714 157.445 100.853L157.642 100.879L157.495 100.779C156.061 100.649 154.638 100.634 153.265 100.599C151.893 100.577 150.521 100.634 149.155 100.771C149.082 100.721 148.887 100.822 148.891 100.843C148.895 100.863 149.002 100.918 149.134 100.882L149.347 100.883C150.462 100.85 151.57 101.064 152.733 101.172L156.094 101.497C157.197 101.58 158.294 101.725 159.38 101.933C160.513 102.11 161.655 102.275 162.801 102.46C164.439 102.645 166.058 102.969 167.64 103.431L170.048 104.078L171.262 104.4L172.422 104.828L174.303 105.567C174.945 105.766 175.569 106.021 176.167 106.33L174.301 105.727C173.067 105.218 171.793 104.809 170.492 104.505C169.679 104.384 168.856 103.987 167.769 103.769L165.393 103.233L164.182 102.985L162.949 102.848L157.995 102.231C155.633 102.045 153.231 102.048 150.855 101.907C148.48 101.766 146.091 102.118 143.741 102.282C142.573 102.368 141.478 102.451 140.239 102.614C138.301 102.825 136.375 103.135 134.469 103.543C133.896 103.674 133.224 103.846 132.734 103.908C131.677 104.055 130.629 104.26 129.594 104.523C128.551 104.873 127.531 105.294 126.483 105.677L124.048 106.626C123.639 106.78 123.227 106.912 122.806 107.057C122.401 107.229 121.988 107.38 121.568 107.509C121.328 107.588 121.105 107.71 120.911 107.871C120.777 108.067 121.07 107.979 121.442 107.8L122.874 107.194C123.085 107.121 123.349 107.049 123.348 107.103C123.348 107.156 122.969 107.24 122.795 107.337C120.545 108.304 118.318 109.395 116.1 110.42L115.331 110.867C113.883 111.786 112.415 112.656 110.935 113.517C109.454 114.379 108.136 115.476 106.721 116.454C105.926 117.044 105.074 117.561 104.335 118.226L102.117 120.202C100.612 121.471 99.2161 122.865 97.9449 124.369C97.5084 124.88 97.0556 125.362 96.5783 125.828C96.0629 126.341 95.6164 126.918 95.2504 127.547C95.0919 127.78 94.9085 128.05 94.725 128.321C94.5415 128.591 94.3247 128.91 94.1162 129.217L92.6538 131.24C92.1106 132.079 91.4591 132.844 90.7162 133.514C90.4647 133.742 90.2488 134.007 90.0756 134.299C88.799 136.681 87.3793 138.983 86.1557 141.419C85.5546 142.805 84.8678 144.134 84.2422 145.504C84.0838 145.737 83.9694 146.09 84.0724 146.07C84.185 145.938 84.2829 145.794 84.3643 145.641L85.9102 142.598L86.6771 141.073C86.994 140.606 87.3192 140.127 87.6361 139.66L89.4523 136.747C90.0414 135.761 90.6874 134.809 91.3871 133.897L93.9855 130.439C94.3858 129.849 94.8195 129.21 95.3296 128.749L96.8248 127.18C98.0579 125.917 99.1769 124.559 100.43 123.346L101.607 122.35C101.756 122.218 101.915 122.098 102.084 121.992C101.975 122.151 101.867 122.311 101.742 122.495C101.326 122.949 100.886 123.386 100.413 123.819C99.9405 124.252 99.5368 124.767 99.0595 125.233C98.6353 125.612 98.2384 126.02 97.872 126.455C97.4216 127.118 96.8526 127.719 96.2875 128.34L95.4521 129.281L94.7349 130.337C93.509 132.143 92.0124 133.873 90.8566 135.655L87.522 141.305C87.4131 141.498 87.3191 141.698 87.2409 141.904C86.9671 142.598 86.2685 143.864 86.5486 143.821C86.8286 143.778 87.2967 142.534 87.6284 141.808C88.6115 140.017 89.7011 138.28 90.7456 136.531C91.0291 136.113 91.321 135.683 91.5795 135.302L92.4871 134.123L94.3644 131.701C94.6646 131.259 94.9482 130.841 95.1659 130.863C93.294 133.079 91.6011 135.441 90.1033 137.925L88.5948 140.49L87.8466 141.777L87.2088 143.139L85.4725 146.752C85.1914 147.351 84.8529 147.928 84.6208 148.56L83.974 150.436C83.1091 152.394 82.4199 154.425 81.9146 156.504C81.5797 158.034 81.1536 159.543 80.6386 161.022C80.2793 162.949 79.9979 164.894 79.7209 166.806C79.5756 167.63 79.5058 168.466 79.5125 169.302L79.4111 171.8L79.3218 174.306C79.2977 175.133 79.401 175.957 79.4219 176.796C79.4356 177.093 79.4409 177.401 79.514 177.505C79.587 177.608 79.6057 177.37 79.6823 177.099C79.7465 176.353 79.7645 175.604 79.7361 174.856C79.7579 173.848 79.8783 172.853 79.9696 171.874C79.9839 171.668 80.0193 171.405 80.056 171.43C80.0714 171.618 80.0751 171.806 80.0672 171.994C79.9627 173.215 79.932 174.44 79.9753 175.665L80.0951 177.81C80.1205 178.168 80.1621 178.555 80.2573 178.494C80.3525 178.433 80.3265 178.128 80.329 177.861C80.3601 176.733 80.223 175.563 80.2419 174.428L80.5113 170.68C80.5346 169.425 80.6314 168.173 80.8013 166.929L80.9059 166.3C81.0167 165.842 81.0351 165.366 80.9601 164.901C80.8346 164.69 80.6834 165.467 80.5485 165.824L80.6186 165.8Z" fill="#F4F2F2"/>
<path d="M229.631 179.898C229.83 179.086 229.966 178.26 230.036 177.427C230.26 175.91 230.368 175.858 230.478 177.278C230.515 177.752 230.547 178.258 230.537 178.826C230.528 179.394 230.545 179.818 230.639 179.864C230.97 180.089 230.959 181.661 230.851 183.167L230.529 185.407C230.414 185.959 230.357 186.522 230.357 187.085C230.419 189.186 230.117 191.282 229.465 193.281C228.821 196.025 227.969 198.717 226.918 201.333C226.26 203.04 226.19 203.118 226.203 202.175C226.212 202.002 226.206 201.854 226.068 202.084C225.882 202.419 225.745 202.78 225.663 203.155C225.65 203.909 225.372 204.635 224.879 205.207C224.497 205.845 224.156 206.506 223.857 207.187C223.557 207.629 223.355 208.138 223.248 208.084C223.142 208.03 223.402 207.488 223.628 207.05C224.145 206.026 224.556 204.952 224.855 203.844C224.968 203.545 225.012 203.323 224.934 203.306C224.856 203.289 224.45 204.413 224.86 203.256C225.19 202.103 225.588 200.971 226.052 199.865C226.34 199.236 226.587 198.589 226.793 197.928C226.96 197.234 227.115 196.531 227.24 195.898C227.576 194.268 228 192.657 228.511 191.072C229.013 189.224 228.953 187.783 228.585 187.928C228.218 188.073 228.377 188.235 228.339 188.712C228.313 189.091 228.245 189.466 228.136 189.83C228.077 189.916 228.011 190.015 228.002 190.027C227.994 190.039 227.98 189.743 228.027 189.541C228.284 188.531 228.411 187.235 228.641 186.369C228.871 185.502 228.987 184.145 229.193 183.154C229.296 182.827 229.274 182.474 229.133 182.162C228.986 182.062 229.008 182.346 228.9 182.901L228.755 183.88C228.667 184.484 228.533 184.734 228.451 184.75C228.368 184.766 228.46 184.128 228.512 183.841C228.69 182.819 228.794 181.785 228.821 180.748L229.115 177.466C229.141 176.425 229.274 175.385 229.218 174.359L229.128 171.247C229.117 170.181 229.045 169.127 228.972 168.073C228.945 167.48 228.807 166.866 228.688 166.857C228.569 166.848 228.649 167.441 228.637 167.935C228.624 168.428 228.628 168.898 228.644 169.375C228.727 170.993 228.757 172.611 228.796 174.216C228.834 175.822 228.593 177.417 228.512 179.013C228.432 180.609 228.347 181.736 228.264 183.098C228.25 183.413 228.206 183.725 228.132 184.031C227.751 185.675 227.69 187.321 227.358 188.997C227.229 189.935 227.031 190.862 226.765 191.771C226.522 192.683 226.27 193.607 225.995 194.514L225.183 197.319C224.87 198.255 224.487 199.162 224.153 200.102C223.413 201.932 222.835 203.838 221.964 205.597C220.758 207.901 219.715 210.334 218.362 212.538C217.195 214.258 216.058 216.143 214.906 217.945C214.78 218.176 214.632 218.394 214.464 218.596C214.464 218.596 214.604 218.206 214.754 217.931C215.357 216.779 216.164 215.855 216.771 214.724C217.355 213.864 217.938 213.004 218.505 212.169C218.862 211.719 219.082 211.176 219.137 210.605C219.223 210.148 219.398 209.712 219.651 209.321C220.332 207.972 220.938 206.586 221.466 205.169C221.832 204.234 221.654 204.022 221.53 204.046C221.233 204.447 220.99 204.886 220.806 205.35C220.182 206.799 219.402 208.178 218.481 209.46L218.373 209.62C217.978 210.07 217.559 211.347 217.095 211.66C217.49 210.666 217.832 209.652 218.119 208.622C218.461 207.723 218.96 206.698 219.26 205.807C218.726 206.593 218.281 207.619 217.751 208.372C217.579 208.59 217.423 208.82 217.284 209.06C216.519 210.661 215.621 212.194 214.601 213.646L214.251 214.162C214.335 213.97 214.431 213.784 214.54 213.604C215.115 212.757 215.494 211.883 216.036 211.031C216.42 210.466 216.624 209.796 216.413 209.922C216.202 210.048 216.454 209.412 216.702 208.916C216.949 208.42 217.185 208.204 217.354 207.797C217.531 207.517 217.656 207.207 217.724 206.882C217.772 206.628 217.673 206.668 217.515 206.848C217.172 207.21 216.891 207.625 216.681 208.076C216.328 208.86 215.971 209.623 215.57 210.319C215.169 211.016 214.661 211.658 214.211 212.322C214.096 212.559 213.947 212.779 213.769 212.973L214.152 212.408C214.785 211.455 215.348 210.458 215.837 209.424C216.304 208.395 216.766 207.344 217.273 206.307C217.899 204.937 218.634 203.642 219.15 202.197C219.57 201.203 219.918 200.179 220.19 199.134C219.66 199.993 219.244 200.917 218.951 201.883L218.491 203.168C218.241 203.536 218.076 203.963 217.863 204.356C217.649 204.75 217.471 204.934 217.457 205.139C216.765 206.91 215.909 208.612 214.901 210.224C213.952 211.748 212.889 213.199 211.722 214.563C211.639 214.686 211.505 214.882 211.389 215.054C211.272 215.226 210.905 215.767 210.947 215.705C211.094 215.395 211.258 215.093 211.436 214.8C212.47 212.881 213.68 211.046 214.722 209.115C214.972 208.747 215.191 208.214 215.292 207.906C215.858 206.408 216.543 204.959 217.34 203.571C217.992 202.14 218.54 200.664 218.977 199.154C219.065 198.952 219.104 198.733 219.09 198.513C219.016 198.463 218.948 198.722 218.789 198.955C218.289 200.088 217.777 201.211 217.269 202.356C216.761 203.5 216.08 204.635 215.516 205.94C214.953 207.245 214.391 208.389 213.751 209.569C213.634 209.741 213.484 209.962 213.459 209.999C213.434 210.036 213.444 209.863 213.565 209.658C213.924 209.13 214.166 208.272 213.926 208.414C213.49 208.879 213.13 209.409 212.859 209.987C212.659 210.281 212.459 210.576 212.258 210.871C212.058 211.166 211.925 211.362 211.901 211.239C211.959 211.051 212.048 210.875 212.165 210.718C212.582 210.104 212.999 209.49 213.29 208.771L214.201 206.716C214.815 205.338 215.44 203.968 216.078 202.606C216.269 202.216 216.38 201.791 216.406 201.358C216.507 200.4 216.766 199.466 217.172 198.593C217.46 198.015 217.652 197.394 217.741 196.754C217.772 196.434 217.857 196.122 217.992 195.83C218.4 194.438 218.705 193.012 219.068 191.607C219.43 190.202 219.908 188.839 220.11 187.433C220.23 186.887 220.29 186.64 220.377 187.04C220.464 187.44 220.558 187.037 220.719 186.536C220.858 185.895 220.952 185.246 221 184.592C221.182 183.196 221.275 181.79 221.278 180.383C221.206 179.43 221.321 178.472 221.617 177.563C221.813 177.056 221.917 176.519 221.924 175.976C222.032 174.578 221.86 173.169 221.84 171.774C221.82 170.378 221.796 168.962 221.587 167.582C221.469 166.785 221.29 165.998 221.054 165.228C220.761 164.361 220.641 163.444 220.701 162.53C220.705 161.554 220.553 160.584 220.251 159.658C219.979 158.396 219.485 157.541 219.214 156.172C219.18 156.056 219.115 155.95 219.028 155.866C219.028 155.866 218.984 156.142 219.059 156.426C219.365 157.585 219.52 158.677 219.862 159.914L220.278 161.543C220.363 162.103 220.44 162.676 220.493 163.232C220.525 164.18 220.44 165.129 220.24 166.057C220.219 166.312 220.239 166.567 220.299 166.815C220.385 167.268 220.455 167.693 220.513 168.109C220.571 168.525 220.526 168.961 220.538 169.364C220.535 170.188 220.494 170.986 220.45 171.763C220.425 172.026 220.425 172.291 220.451 172.553C220.661 173.474 220.755 174.418 220.729 175.362L220.419 178.113C220.37 179.594 220.174 181.066 219.835 182.509C219.752 182.845 219.699 183.187 219.678 183.532C219.529 185.305 219.261 187.066 218.876 188.803L218.959 187.441C219.042 187.007 219.083 186.566 219.082 186.125L218.766 187.382L218.629 187.953C218.552 188.278 218.493 188.471 218.387 188.309C218.356 188.148 218.353 187.982 218.379 187.819L218.821 184.53C218.855 183.558 218.967 182.59 219.157 181.635C219.248 180.71 219.384 179.797 219.499 178.889C219.576 178.542 219.624 178.19 219.641 177.836C219.623 177.519 219.574 177.037 219.666 176.902C219.758 176.767 219.861 177.142 219.848 177.689C219.826 179.093 219.929 178.678 220.088 177.942C220.222 177.379 220.306 176.806 220.338 176.228C220.408 175.268 220.403 174.305 220.324 173.347L220.191 170.457C220.185 169.493 220.126 168.531 220.016 167.574L219.619 164.703C219.48 163.747 219.332 162.857 219.127 161.999C219 161.5 218.937 161.171 218.992 161.908C218.995 162.074 218.984 162.241 218.958 162.406C218.901 162.833 218.792 162.651 218.707 161.984C218.479 160.832 218.188 159.693 217.834 158.574C217.676 157.91 217.31 156.208 217.045 156.782C216.962 156.905 216.785 156.031 216.654 155.565C216.522 155.099 216.343 154.492 216.206 154.561C216.07 154.63 216.23 155.08 216.341 155.604C216.733 157.216 216.871 158.674 217.292 160.323C217.412 160.776 217.506 161.236 217.575 161.7L217.656 163.137C217.794 164.144 217.876 165.159 217.903 166.176C217.658 165.112 217.595 163.992 217.391 162.867L217.296 162.031C216.988 160.491 216.598 158.969 216.13 157.47C215.818 156.559 215.53 155.268 215.067 154.129C214.788 153.353 214.448 152.601 214.052 151.878C213.843 151.395 213.977 151.989 214.058 152.134L214.478 153.836C214.549 154.1 214.742 154.555 214.664 154.591C214.536 154.407 214.43 154.209 214.349 154C214.23 153.771 214.128 153.534 214.043 153.29C213.792 152.42 213.442 151.536 213.191 150.72L212.714 149.444L212.149 148.218C211.881 147.277 211.362 146.428 210.646 145.762C210.379 145.498 210.19 145.165 210.1 144.799C209.98 144.448 209.824 144.019 209.671 143.664C209.519 143.406 209.421 143.12 209.383 142.822C209.221 142.044 208.885 141.312 208.399 140.683L207.441 138.902C207.132 138.307 206.736 137.76 206.268 137.28C205.767 136.661 205.377 135.959 205.115 135.206C205.092 135.028 205.324 135.347 205.483 135.455C206.019 136.113 206.594 136.737 207.205 137.324C207.461 137.659 207.205 137.324 207.129 137.093L204.372 132.871C203.882 132.036 203.239 131.348 202.732 130.591C202.21 129.874 201.612 129.215 200.949 128.627C200.126 127.888 199.501 126.961 198.685 126.21C198.465 126.061 198.258 125.759 198.328 125.734C198.541 125.85 198.742 125.987 198.929 126.142C199.463 126.595 199.958 127.093 200.408 127.631C201.608 128.948 202.797 130.204 204.025 131.325C204.954 132.347 205.818 133.425 206.614 134.554C207.473 135.659 208.23 136.839 208.876 138.081C209.26 138.874 209.721 139.626 210.253 140.326C210.529 140.711 210.645 140.593 210.362 140.167C210.114 139.593 209.827 139.038 209.501 138.506C209.145 137.923 208.817 137.324 208.494 136.745L207.345 135.086C207.198 134.986 207.049 134.705 207.107 134.673C207.164 134.64 207.29 134.798 207.425 134.889C207.794 135.304 208.137 135.741 208.454 136.197C208.936 136.91 209.379 137.648 209.782 138.409C209.883 138.603 210.057 138.847 210.101 138.967C210.71 140.708 212.165 142.522 212.761 144.362C213.125 145.32 213.589 146.237 214.146 147.097C214.275 147.328 214.405 147.506 214.463 147.474C214.521 147.441 214.429 147.181 214.337 146.921C213.936 145.77 213.442 144.519 212.856 143.404C212.27 142.288 211.531 140.871 210.873 139.598C210.713 139.299 210.569 138.992 210.441 138.677C210.28 138.335 210.298 138.203 210.449 138.324C210.624 138.508 210.763 138.724 210.858 138.96C211.334 140.02 211.926 141.024 212.623 141.953C212.927 142.429 213.155 143.175 213.44 143.387C213.726 143.599 213.958 144.313 214.005 144.112C214.004 143.631 213.906 143.156 213.718 142.714L213.341 141.74L212.864 140.807C212.549 140.158 212.2 139.527 211.821 138.914C211.153 137.814 210.575 136.686 209.96 135.587C209.345 134.488 208.557 133.486 207.765 132.464C207.695 132.33 207.633 132.192 207.579 132.051C208.619 133.133 209.54 134.323 210.326 135.602C210.512 135.962 210.745 136.515 210.905 136.57C211.065 136.624 210.717 135.976 210.499 135.558C209.896 134.574 209.222 133.614 208.524 132.638L206.799 130.193C206.256 129.357 205.547 128.661 204.958 127.866C204.749 127.725 204.555 127.378 204.601 127.337C204.73 127.389 204.847 127.469 204.944 127.57L205.646 128.172C206.026 128.489 206.437 128.768 206.872 129.004C207.167 129.097 206.32 128.234 206.227 127.974C206.135 127.714 206.229 127.814 206.246 127.736C206.241 127.671 206.22 127.609 206.186 127.554C206.151 127.499 206.104 127.454 206.048 127.422C205.276 126.789 204.626 126.019 204.132 125.152C203.343 124.204 202.522 123.197 201.826 122.402L201.651 122.158L201.97 122.374C202.819 123.109 203.613 123.906 204.345 124.758L207.075 127.886L207.755 128.652L208.364 129.497L209.607 131.148C210.195 132.116 210.902 133.006 211.712 133.797C211.872 133.906 212.017 134.166 212.026 134.1C211.969 133.942 211.89 133.791 211.792 133.654C211.27 132.708 210.519 131.677 209.916 130.693C209.607 130.269 209.363 129.801 209.192 129.305C209.13 128.975 209.033 128.748 209.614 129.502C209.744 129.68 209.915 129.85 209.957 129.735C210 129.62 209.792 129.425 209.662 129.247C208.869 128.093 208 126.993 207.061 125.956L204.352 122.771C202.45 120.744 200.403 118.852 198.406 116.94L197.316 116.092L196.936 115.834C196.936 115.834 197.059 115.917 197.083 115.934C197.601 116.347 198.151 116.72 198.726 117.049C199.192 117.366 199.633 117.665 200.185 118.04C201.54 119.157 202.873 120.331 204.19 121.531C205.507 122.73 206.584 124.178 207.776 125.508L209.026 126.913C209.215 127.133 209.429 127.332 209.662 127.506C209.772 127.581 209.77 127.346 209.551 127.036L207.85 124.661C207.606 124.334 207.155 123.812 207.229 123.755C207.304 123.698 207.743 124.212 208.049 124.527C208.354 124.842 208.688 125.194 208.998 125.476C209.817 126.248 209.953 126.232 209.508 125.463L209.278 125.038C208.84 124.31 209.102 124.506 209.769 125.21C209.978 125.352 210.233 125.74 210.271 125.658C210.178 125.491 210.07 125.333 209.946 125.187L209.536 124.657C209.065 123.979 209.115 123.905 209.678 124.448L210.737 125.526C210.942 125.784 211.167 126.027 211.409 126.251C211.519 126.326 211.445 125.935 211.201 125.608C210.583 124.731 209.917 123.889 209.205 123.086L208.082 121.839C207.777 121.471 207.789 121.479 208.075 121.691C209.251 122.597 209.191 122.448 208.086 121.016C207.7 120.503 207.008 119.675 208.121 120.753C208.708 121.313 208.464 120.986 208.119 120.518C207.774 120.051 207.278 119.463 206.842 118.97L205.42 117.556C204.459 116.591 203.447 115.676 202.39 114.817C201.741 114.376 201.225 113.685 200.567 113.202C199.518 112.347 198.531 111.479 197.359 110.648C197.074 110.474 196.827 110.246 196.633 109.975C196.573 109.827 196.823 109.907 197.117 110.107C198.868 111.105 200.517 112.272 202.04 113.592C203.412 115.026 204.999 116.409 206.343 117.805C206.649 118.12 207.04 118.44 207.371 118.719C207.582 118.938 207.837 119.111 208.119 119.226C208.562 119.312 208.745 119.544 209.071 120.25C209.186 120.439 209.333 120.606 209.507 120.743C210.421 121.552 211.237 122.467 211.936 123.469C212.572 124.207 213.144 124.997 213.646 125.832C214.173 126.638 214.712 127.453 215.284 128.272C216.051 129.438 216.949 130.515 217.638 131.664C218.326 132.813 219.043 134 219.798 135.104C219.972 135.349 220.206 135.795 220.28 135.791C220.355 135.788 220.063 135.267 219.91 134.965C219.054 133.272 218.15 131.384 217.248 129.785C216.892 129.148 216.373 128.436 215.89 127.75C214.972 126.463 214.047 125.188 213.314 123.919C212.944 123.39 212.521 122.899 212.053 122.453C210.83 121.3 209.758 119.819 208.576 118.657C208.421 118.523 208.295 118.359 208.207 118.173C208.13 117.996 208.273 118.075 208.473 118.229C208.855 118.558 209.21 118.919 209.533 119.307C210.542 120.458 211.584 121.561 212.408 122.695C212.774 123.212 213.279 123.681 213.686 124.19C213.866 124.472 214.112 124.707 214.403 124.874C214.501 124.941 214.389 124.578 214.163 124.173C214.019 123.913 213.861 123.662 213.689 123.42C213.267 122.828 213.386 122.838 213.469 122.715C213.553 122.592 213.938 122.71 214.415 123.142C214.892 123.573 215.416 124.305 215.956 125.013C216.997 126.33 217.996 127.654 218.979 129.003C219.895 130.428 220.738 131.898 221.504 133.409C222.117 134.615 222.822 135.794 223.394 137.061C223.966 138.329 224.522 139.621 225.114 140.885C225.755 142.362 226.248 143.898 226.585 145.473C226.72 145.906 226.606 145.81 226.485 145.62C226.16 145.149 226.024 145.164 226.262 146.133C226.47 147.019 226.822 147.864 227.304 148.635C227.474 148.768 227.602 148.947 227.673 149.151C227.744 149.355 227.755 149.576 227.704 149.786C227.713 150.303 227.799 150.816 227.961 151.307L228.353 153.367C228.422 153.647 228.462 153.932 228.473 154.22C228.389 153.948 228.297 153.688 228.221 153.403C228.146 153.119 227.948 152.249 227.793 151.713C227.638 151.177 227.343 150.582 227.48 151.356C227.503 151.534 227.558 151.769 227.577 151.979C227.525 151.784 227.464 151.593 227.393 151.405C227.187 150.551 226.866 149.728 226.437 148.962C226.314 148.878 225.954 147.431 225.677 146.651C225.443 145.884 225.165 145.132 224.843 144.398C224.561 143.878 224.228 143.387 223.849 142.934C223.483 142.523 223.516 142.923 223.818 143.613C224.183 144.37 224.466 145.164 224.664 145.981C224.858 146.777 225.048 147.552 225.34 148.414C225.632 149.277 225.986 150.522 226.319 150.586L226.466 150.686C226.466 150.686 226.477 150.855 226.448 150.871C226.224 151.043 226.572 152.086 226.809 153.162C226.995 153.917 227.088 154.572 227.201 155.223C227.561 157.037 228.04 158.825 228.635 160.576C228.944 161.495 229.126 162.451 229.176 163.42C229.223 164.169 229.298 164.902 229.435 165.677L229.548 166.777L229.587 167.88C229.655 169.362 229.753 170.828 229.891 172.339C229.988 173.41 230.141 174.609 229.694 174.001C229.548 173.794 229.554 174.444 229.507 175.094L229.485 176.999C229.735 176.631 229.88 176.101 229.819 177.8C229.799 178.37 229.825 178.94 229.898 179.505C229.781 179.677 229.898 179.505 229.831 179.603C229.764 179.701 229.642 180.067 229.631 179.898Z" fill="#F4F2F2"/>
<path d="M72.545 146.985C72.6186 147.035 72.5499 147.347 72.4267 147.766C72.2632 148.174 72.1434 148.598 72.0694 149.031C72.218 148.971 72.3437 148.284 72.5037 147.89C72.9119 146.893 73.3028 146.423 73.448 146.737C73.5931 147.051 73.2634 147.563 73.5951 146.837C73.7535 146.603 74.0234 145.889 73.6701 146.726C72.8337 149.01 72.1658 151.351 71.6718 153.732C71.311 155.372 70.9051 156.999 70.4747 158.609L69.5082 163.462C69.3963 163.996 69.3894 163.848 69.4081 163.61C69.3872 162.77 69.2666 162.473 69.0439 162.537C68.8819 161.592 68.8605 160.628 68.9802 159.676C69.1767 158.015 69.715 156.298 70.0762 154.605L70.6961 152.083L71.0205 150.814L71.4597 149.586C71.8184 148.61 72.2324 147.868 72.575 146.862C72.6196 146.928 72.6029 146.953 72.545 146.985Z" fill="#F4F2F2"/>
<path d="M140.294 94.9883C142.186 94.7092 144.094 94.542 146.006 94.4874C147.622 94.5076 149.298 94.3349 150.929 94.4375C151.763 94.4764 152.592 94.5774 153.41 94.7399C154.571 94.9869 155.752 95.1279 156.939 95.1611C157.152 95.1485 157.366 95.1724 157.571 95.2317L156.828 95.1932C154.361 95.0803 151.903 94.9551 149.46 94.9658L144.898 95.1706L142.648 95.2404L140.391 95.5035C139.762 95.5606 138.983 95.6783 139.446 95.4183L139.496 95.3446C139.496 95.3446 138.105 95.5483 138.46 95.341C138.605 95.2063 139.701 95.0704 140.294 94.9883Z" fill="#F4F2F2"/>
<path d="M219.072 129.103L218.78 128.689C218.303 128.065 217.859 127.416 217.449 126.745L218.735 128.228C219.101 128.638 219.281 128.795 219.103 128.477C218.925 128.159 218.855 127.735 218.743 127.372C218.631 127.009 218.828 127.088 219.231 127.523C219.657 127.986 220.015 128.507 220.294 129.071C220.634 130.103 221.064 131.103 221.578 132.06C221.707 132.291 221.69 132.423 221.584 132.261C220.534 130.616 221.62 133.291 220.518 131.537C220.011 130.781 219.62 129.905 219.022 129.176L219.072 129.103Z" fill="#F4F2F2"/>
<path d="M230.757 154.945L231.801 159.817C231.831 159.952 231.84 160.091 231.826 160.229C231.776 160.303 231.703 160.146 231.693 159.87C231.577 159.208 231.423 158.553 231.235 157.908C231.159 157.623 231.069 157.149 231.002 157.247C230.936 157.346 231.043 157.742 231.114 158.059C231.424 159.269 231.61 160.507 231.668 161.755C231.683 161.93 231.677 162.107 231.65 162.282C231.592 162.368 231.562 162.096 231.515 161.848L231.109 159.438C230.933 158.638 230.801 157.829 230.713 157.015C230.61 156.209 230.452 155.412 230.237 154.628L229.787 152.654C229.629 151.936 229.7 151.805 229.791 151.723C229.883 151.642 230.06 152.014 230.227 152.665L230.757 154.945Z" fill="#F4F2F2"/>
<path d="M231.372 188.941C231.542 187.516 231.89 186.118 232.406 184.779C232.673 184.386 232.703 184.711 232.515 185.912C232.45 186.245 232.389 186.652 232.325 186.877C232.019 187.908 231.766 189.046 231.537 190.255C231.308 191.463 230.922 192.691 230.631 193.911C230.558 194.203 230.463 194.659 230.382 194.568C230.301 194.476 230.468 194.124 230.52 193.89C230.772 192.973 230.951 192.039 231.056 191.095C231.119 190.474 231.258 189.689 231.372 188.941Z" fill="#F4F2F2"/>
<path d="M215.903 189.172C216.164 188.232 216.353 187.275 216.469 186.307C216.552 186.184 216.517 185.999 216.542 186.016C216.566 186.032 216.565 186.193 216.555 186.312C216.428 187.554 216.467 188.262 216.709 188.354C216.679 189.242 216.507 190.118 216.199 190.952C216.007 191.234 216.164 190.766 216.194 190.59C216.371 189.776 216.47 189.233 216.07 190.218C215.98 190.384 215.874 190.54 215.754 190.685C215.437 191.152 215.415 190.868 215.659 189.849L215.903 189.172Z" fill="#F4F2F2"/>
<path d="M88.5656 144.49L89.564 142.387C89.6891 142.202 89.9142 141.871 89.9059 141.883C89.8976 141.895 89.8166 142.199 89.6827 142.449C89.2043 143.47 88.8373 144.46 88.4001 145.473C88.25 145.694 88.1774 145.986 88.0518 146.223C87.6995 146.953 87.2104 147.806 87.0343 147.722C86.8583 147.639 87.418 146.709 87.6741 146.147L88.492 144.441L88.5656 144.49Z" fill="#F4F2F2"/>
<path d="M164.483 105.523C162.798 105.366 160.933 105.159 159.086 104.82C158.667 104.751 158.133 104.64 158.147 104.541C158.16 104.443 158.805 104.522 159.285 104.579C161.055 104.747 162.807 105.072 164.52 105.548L164.372 105.448L164.483 105.523Z" fill="#F4F2F2"/>
<path d="M81.6425 168.882L81.5785 170.005C81.5671 170.113 81.5482 170.22 81.522 170.326C81.4637 170.412 81.5221 170.326 81.4701 170.165C81.4662 167.97 81.6864 165.78 82.1275 163.63C82.2168 163.314 82.2993 162.849 82.3679 162.985C82.4026 163.245 82.3601 163.51 82.2457 163.746C82.0642 164.312 81.9605 164.899 81.9373 165.493C81.9519 166.579 81.6697 167.734 81.6425 168.882Z" fill="#F4F2F2"/>
<path d="M229.608 161.649C229.481 160.701 229.316 159.441 229.076 158.291L228.947 157.611C229.033 157.793 229.095 157.986 229.131 158.184C229.405 159.208 229.614 160.249 229.755 161.3L230.26 164.461C230.322 164.724 230.338 164.995 230.306 165.264C230.223 165.386 230.108 164.949 230.05 164.587L229.608 161.649Z" fill="#F4F2F2"/>
<path d="M218.288 179.09C218.27 178.632 218.305 178.174 218.392 177.724C218.533 177.515 218.529 178.392 218.639 178.574C218.771 179.01 218.778 179.475 218.659 179.915C218.546 180.557 218.431 180.963 218.255 180.933C218.078 180.903 218.216 180.674 218.222 180.48L218.288 179.09Z" fill="#F4F2F2"/>
<path d="M216.831 195.508C216.646 196.07 216.418 196.618 216.15 197.145C215.958 197.428 215.675 198.241 215.631 198.068C215.587 197.894 215.91 197.234 216.061 196.906C216.415 196.069 216.563 195.111 216.941 194.344C217.032 194.209 217.137 193.58 217.206 193.717C217.274 193.853 217.177 194.128 217.105 194.42C217.037 194.788 216.946 195.152 216.831 195.508Z" fill="#F4F2F2"/>
<path d="M217.069 196.477C216.994 196.698 216.907 196.914 216.808 197.126C216.616 197.408 216.474 197.617 216.597 197.252C216.72 196.886 217.347 194.854 217.529 194.295C217.711 193.737 217.645 194.284 217.622 194.502C217.535 195.183 217.348 195.849 217.069 196.477Z" fill="#F4F2F2"/>
<path d="M81.2189 176.365L81.177 175.134C81.1314 174.726 81.1345 173.957 81.2939 174.065C81.4532 174.173 81.3526 174.823 81.3932 175.317L81.3774 176.132C81.3841 176.729 81.4727 177.812 81.3496 177.782C81.2265 177.752 81.2978 176.724 81.2189 176.365Z" fill="#F4F2F2"/>
<path d="M122.937 98.3168C124.352 97.8416 125.763 97.3459 127.157 96.9282C127.342 96.8925 127.618 96.8287 127.618 96.8822L127.173 97.0106C126.69 97.1675 126.203 97.3573 125.766 97.4735C123.902 98.0029 122.054 98.6683 120.205 99.3337C119.986 99.4185 119.751 99.4743 119.545 99.5675C119.732 99.4591 119.93 99.3709 120.135 99.3043L122.937 98.3168Z" fill="#F4F2F2"/>
<path d="M106.719 119.754C105.973 120.325 105.666 120.619 105.619 120.425C105.571 120.231 106.184 119.75 106.59 119.469C106.995 119.188 107.533 118.818 107.569 119.003C107.604 119.189 106.86 119.599 106.719 119.754Z" fill="#F4F2F2"/>
<path d="M207.458 132.256C206.898 131.498 206.432 130.68 205.797 129.98C205.536 129.782 205.348 129.502 205.262 129.185C205.337 129.075 205.691 129.477 205.862 129.7C206.516 130.455 207.049 131.307 207.442 132.227L207.458 132.256Z" fill="#F4F2F2"/>
<path d="M119.761 100.594C120.238 100.517 120.699 100.364 121.127 100.139C121.973 99.7625 122.939 99.4486 123.859 99.1221C124.238 98.9849 124.762 98.8201 124.827 98.8823C124.893 98.9445 124.315 99.109 124.018 99.2302C122.524 99.8489 121.139 100.147 119.774 100.602L119.649 100.786L119.761 100.594Z" fill="#F4F2F2"/>
<path d="M114.963 112.411C115.225 112.225 115.515 112.083 115.822 111.99C115.595 112.286 115.318 112.542 115.005 112.745C114.605 112.977 114.174 113.15 113.725 113.258C113.614 113.237 114.07 112.882 114.963 112.411Z" fill="#F4F2F2"/>
<path d="M199.047 113.014L197.863 112.121C197.691 112.004 197.397 111.804 197.483 111.863L197.789 112.071C198.255 112.387 198.733 112.711 199.187 113.019C199.655 113.339 200.094 113.697 200.501 114.091C200.385 114.156 199.562 113.417 199.047 113.014Z" fill="#F4F2F2"/>
<path d="M206.302 132.35C205.98 131.977 205.723 131.554 205.54 131.097C205.607 130.999 206.017 131.529 206.297 131.934C206.577 132.34 206.894 132.823 206.737 132.843C206.581 132.862 206.424 132.487 206.302 132.35Z" fill="#F4F2F2"/>
<path d="M134.732 95.1076L136.371 94.8564L137.001 94.7993C137.001 94.7993 136.679 94.9039 136.49 94.919C135.796 95.0104 135.109 95.1428 134.43 95.3153L132.406 95.8435C132.171 95.8994 131.883 95.9549 131.933 95.8812C132.054 95.8217 132.181 95.7757 132.312 95.744L134.732 95.1076Z" fill="#F4F2F2"/>
<path d="M119.774 100.602L118.327 101.415C117.961 101.627 117.568 101.789 117.158 101.896C117.097 101.854 117.832 101.563 118.204 101.385L119.736 100.631L119.774 100.602Z" fill="#F4F2F2"/>
<path d="M75.2594 143.013C75.048 143.37 74.8618 143.741 74.702 144.124C74.5936 144.284 74.4602 144.481 74.5436 144.358C74.5679 144.219 74.6063 144.082 74.6584 143.951C74.8086 143.609 74.9849 143.278 75.1858 142.963C75.3443 142.73 75.5136 142.217 75.6362 142.3L75.2594 143.013Z" fill="#F4F2F2"/>
<path d="M136.908 105.252C137.241 105.21 137.607 105.171 137.619 105.233C137.631 105.295 137.244 105.337 137.034 105.356C136.824 105.375 136.177 105.564 136.149 105.473C136.121 105.382 136.656 105.279 136.908 105.252Z" fill="#F4F2F2"/>
<path d="M118.301 110.712C118.006 110.915 117.693 111.093 117.367 111.244C117.317 111.318 117.124 111.312 117.14 111.287C117.157 111.263 117.558 111.015 117.852 110.873C118.145 110.731 118.191 110.69 118.301 110.712Z" fill="#F4F2F2"/>
<path d="M107.228 105.761C106.996 105.891 106.587 106.151 106.617 106.028C106.786 105.898 106.963 105.778 107.146 105.67C107.523 105.458 107.99 105.219 108.022 105.277C107.778 105.471 107.512 105.633 107.228 105.761Z" fill="#F4F2F2"/>
<path d="M143.601 94.021C143.271 94.0517 142.939 94.0547 142.609 94.0301L143.28 93.9651C143.646 93.936 144.013 93.9332 144.378 93.9568L143.601 94.021Z" fill="#F4F2F2"/>
<path d="M92.3235 137.979C92.2451 138.2 92.1336 138.409 91.9928 138.598C91.9428 138.671 91.8844 138.757 91.9011 138.733C91.9695 138.501 92.0849 138.286 92.2401 138.101C92.2531 138.052 92.2825 138.009 92.3235 137.979Z" fill="#F4F2F2"/>
<path d="M88.2365 141.862C88.2062 142.044 88.1373 142.218 88.0343 142.371C87.9176 142.543 87.7758 142.752 87.8509 142.641C87.8803 142.463 87.9418 142.292 88.0324 142.136C88.1168 141.907 88.1997 141.837 88.2365 141.862Z" fill="#F4F2F2"/>
<path d="M95.9498 129.26C96.0804 128.951 96.2703 128.672 96.5086 128.437L96.8946 128.053L96.561 128.544C96.3593 128.783 96.1832 129.042 96.0356 129.318C95.9487 129.366 95.8702 129.428 95.8036 129.501C95.8392 129.414 95.8886 129.332 95.9498 129.26Z" fill="#F4F2F2"/>
<path d="M127.302 98.0857C127.141 98.138 126.906 98.2474 126.775 98.23L127.212 98.0604C127.352 98.0156 127.496 97.9809 127.641 97.9565C127.525 97.9916 127.412 98.0348 127.302 98.0857Z" fill="#F4F2F2"/>
<path d="M139.6 104.98L139.394 105.02C139.18 105.018 139.184 105.039 139.394 105.02L139.591 104.992C139.591 104.992 139.587 104.972 139.6 104.98Z" fill="#F4F2F2"/>
<path d="M109.012 118.619L109.313 118.465L109.657 118.249C109.533 118.38 109.388 118.488 109.226 118.567C109.226 118.567 109.152 118.517 109.07 118.586C108.987 118.656 109.086 118.615 109.012 118.619Z" fill="#F4F2F2"/>
<path d="M129.021 108.692L128.877 108.72L129.034 108.647C129.203 108.582 129.277 108.579 129.198 108.615L129.021 108.692Z" fill="#F4F2F2"/>
<path d="M216.198 160.298L216.217 160.455L216.144 160.405C216.083 160.256 216.076 160.162 216.117 160.207L216.198 160.298Z" fill="#F4F2F2"/>
<path d="M89.0635 140.486C89.0635 140.486 88.9551 140.645 88.9385 140.67C88.9218 140.694 88.9385 140.67 89.0552 140.498C89.0702 140.461 89.093 140.427 89.1219 140.4C89.1352 140.301 89.1347 140.354 89.0635 140.486Z" fill="#F4F2F2"/>
<path d="M116.522 111.802L116.577 111.749L116.631 111.749L116.522 111.802Z" fill="#F4F2F2"/>
<path d="M215.28 211.486L215.354 211.376L215.287 211.527L215.28 211.486Z" fill="#F4F2F2"/>
<path d="M81.3652 172.588L81.3859 172.584L81.3636 172.75L81.3652 172.588Z" fill="#F4F2F2"/>
<path d="M219.083 164.41C219.085 164.25 219.058 164.106 219.024 164.155C218.991 164.204 219.027 164.336 219.067 164.381L219.073 164.242L219.083 164.41Z" fill="#F4F2F2"/>
<path d="M94.9639 130.475C95.2558 130.045 95.5477 129.615 95.8837 129.305C95.5918 129.734 95.2999 130.164 94.9639 130.475Z" fill="#F4F2F2"/>
<path d="M218.876 188.803L218.828 189.111L218.895 189.013L219.011 188.841L218.876 188.803Z" fill="#F4F2F2"/>
<path d="M108.407 119.088L109.012 118.619L108.341 119.132L108.407 119.088Z" fill="#F4F2F2"/>
<path d="M72.5698 146.949L72.6162 146.854L72.5447 146.986L72.5698 146.949Z" fill="#F4F2F2"/>
<path d="M219.067 164.382C219.142 164.271 219.131 164.604 219.067 164.382V164.382Z" fill="#F4F2F2"/>
<path d="M83.3185 203.4C83.0317 202.846 82.7856 202.338 82.5762 201.855L82.1371 200.444C82.041 200.164 81.9047 199.784 81.8734 199.619C81.6629 198.313 81.3363 197.028 80.8976 195.78C80.4908 194.427 80.1958 192.989 79.9082 191.645C79.7705 190.977 79.5877 190.297 79.4049 189.616C79.2235 188.94 79.0925 188.251 79.0129 187.556C78.9115 186.966 78.8262 186.406 78.6575 186.417C78.4888 186.428 78.3511 185.76 78.2301 185.068L77.7143 181.739L77.4626 176.992L77.3041 174.587L77.359 172.237C77.452 170.649 77.4915 169.061 77.6173 167.477L78.3931 162.8C78.5276 162.047 78.6332 161.312 78.7878 160.609C78.9424 159.906 79.2201 159.233 79.4483 158.581C79.6765 157.928 79.784 157.427 79.9236 157.88C80.0633 158.334 80.1587 157.376 80.2485 157.006C80.6052 155.795 80.8267 154.545 81.2859 153.367C81.7452 152.19 82.1593 150.999 82.5612 149.8C82.7264 149.254 82.9279 148.719 83.1642 148.2C83.2977 148.003 83.4459 147.547 83.5145 147.684C83.4778 147.942 83.4034 148.194 83.2937 148.431L81.9653 152.393C81.7494 153.054 81.4884 153.702 81.3176 154.376L80.842 156.422C80.4596 158.172 79.9336 159.897 79.6292 161.665L78.7494 166.918C78.637 167.875 78.5813 168.838 78.5826 169.802L78.4325 172.661C78.3145 174.578 78.3199 176.499 78.4486 178.415C78.5234 179.65 78.4501 180.892 78.6073 182.112C78.7645 183.331 78.9256 184.571 79.1608 185.808C79.207 186.024 79.2379 186.242 79.2534 186.463C79.3205 187.208 79.3586 187.97 79.5119 188.72L80.0755 190.897L81.086 195.424C81.7374 197.445 82.5419 199.373 83.1398 201.394C83.3261 201.949 83.5606 202.487 83.8404 203C84.4858 204.201 85.0086 205.464 85.4007 206.77C85.5655 207.186 85.6404 207.525 85.5213 207.515C85.4021 207.506 85.2393 207.324 84.9603 206.812C84.3081 205.728 83.7585 204.586 83.3185 203.4Z" fill="#0C0C0C"/>
<path d="M88.5757 124.056C87.3562 125.615 86.3049 127.217 85.0559 128.846L84.0733 130.135C83.7731 130.577 83.4646 131.032 83.1643 131.474L81.4934 134.252L79.8386 137.059L78.409 139.983C77.7466 141.328 77.2334 142.559 76.6785 143.851C76.1236 145.143 75.8065 146.507 75.284 147.857C74.7383 149.479 74.045 151.054 73.647 152.722L72.4038 157.693C71.9013 159.716 71.525 161.768 71.2771 163.837L70.8205 166.937L70.6472 170.068L70.4888 172.94C70.3883 173.881 70.3437 174.828 70.3554 175.774L70.5279 181.509C70.5297 182.64 70.7531 183.815 70.7196 184.761C70.6861 185.708 70.9743 186.549 70.9835 187.327C70.8287 186.476 70.7187 185.616 70.6539 184.753C70.3651 183.669 70.2138 182.554 70.2038 181.432C69.8855 175.764 70.0432 170.078 70.6753 164.434C70.8315 163.122 71.1087 162.054 71.3091 160.862L71.5791 159.251L71.9472 157.706L72.6957 154.625C72.9685 153.59 73.184 152.534 73.4564 151.552L74.5251 148.527C74.9476 147.324 75.3005 146.092 75.7647 144.828C76.3402 143.441 76.9997 142.091 77.7394 140.784C78.4247 139.616 79.0886 138.111 79.7171 136.869C80.8248 134.947 81.9738 133.017 83.1222 131.14C83.6828 130.182 84.3069 129.263 84.9903 128.388L87.0261 125.732L88.9618 123.224C89.327 122.79 89.7153 122.377 90.1248 121.985C90.2887 121.798 90.4819 121.638 90.6968 121.512C90.7826 121.57 90.4549 121.868 90.2464 122.176C89.7848 122.724 89.0844 123.307 88.5757 124.056Z" fill="#0C0C0C"/>
<path d="M80.838 137.935L77.7244 144.579C76.8476 146.873 76.0772 149.221 75.2989 151.529C74.8205 152.998 74.5382 154.602 74.1701 156.146C73.9983 156.927 73.8265 157.708 73.7003 158.448L73.5172 159.562C73.4808 159.932 73.4857 160.294 73.4783 160.648C73.4708 161.002 73.4591 160.94 73.4331 161.084L72.5256 167.09C72.3835 169.093 72.1968 171.03 71.8836 172.864C71.7962 173.414 71.7378 173.5 71.7251 173.097L71.4939 171.432C71.4221 170.952 71.4046 170.464 71.4417 169.979C71.5739 168.597 71.4584 167.317 71.5474 166.157C71.5654 165.417 71.7 164.685 71.946 163.987C72.1365 163.463 72.2159 162.906 72.1793 162.35C72.1548 161.683 72.2331 161.016 72.4116 160.372C72.7866 158.976 73.2459 157.349 73.6876 155.855C74.1292 154.36 74.336 152.921 74.8718 151.472C75.1359 150.813 75.3204 150.125 75.4214 149.422C75.5467 148.623 75.8248 147.855 76.2404 147.161C76.8468 146.083 77.4577 144.523 78.3663 142.789L79.8274 139.582C80.3265 138.473 80.8999 137.399 81.5435 136.368C82.8293 134.315 83.9925 132.18 85.3641 130.185C86.1064 129.092 86.9775 128.284 87.7403 127.186C87.7748 127.12 87.8168 127.058 87.8654 127.002C87.7904 127.113 87.707 127.235 87.6319 127.346C84.9163 130.581 83.1334 134.342 80.838 137.935Z" fill="#0C0C0C"/>
<path d="M120.298 107.455L116.052 109.382L112.001 111.657C111.67 111.827 111.257 112.067 111.274 111.935C111.461 111.759 111.675 111.614 111.907 111.504C113.528 110.594 115.043 109.523 116.728 108.729L121.784 106.4C123.159 105.837 124.575 105.383 126.02 105.04C126.275 104.98 126.651 104.876 126.642 104.942C126.633 105.007 126.233 105.148 125.993 105.237L123.089 106.245C122.09 106.608 121.235 107.05 120.298 107.455Z" fill="#0C0C0C"/>
<path d="M73.8736 165.869C74.1152 164.669 74.3248 163.358 74.5428 162.034C74.6264 161.581 74.7489 161.136 74.9089 160.704C75.0282 160.264 75.0733 160.277 75.0438 160.795C74.9086 162.498 74.6159 164.327 74.4808 166.03C74.3908 166.62 74.2078 167.193 73.9385 167.726C73.7208 167.704 73.6978 167.078 73.8736 165.869Z" fill="#0C0C0C"/>
<path d="M69.4615 185.164L69.3724 184.583C69.2161 183.705 69.0765 182.803 69.3237 182.755C69.5708 182.707 69.5849 183.848 69.674 184.429L70.0476 187.572C70.0819 187.864 70.1274 188.272 70.0612 188.317C69.995 188.361 69.9328 187.978 69.8657 187.681C69.6554 186.857 69.5487 185.959 69.4615 185.164Z" fill="#0C0C0C"/>
<path d="M90.5508 120.408C90.2932 120.714 90.0069 120.994 89.6958 121.245C89.6124 121.368 89.4309 121.425 89.4314 121.371C89.5121 121.211 89.613 121.063 89.7316 120.929C89.9442 120.686 90.1715 120.457 90.4125 120.242C90.7817 119.828 91.1886 119.45 91.628 119.111C91.3112 119.577 90.9505 120.011 90.5508 120.408Z" fill="#0C0C0C"/>
<path d="M109.146 114.331C109.146 114.331 109.146 114.331 109.055 114.467C108.496 114.981 107.872 115.421 107.2 115.774C106.994 115.867 107.023 115.797 107.258 115.688L108.878 114.49C108.94 114.424 109.051 114.392 109.146 114.331Z" fill="#0C0C0C"/>
<path d="M70.296 194.883L70.6254 196.165C70.6254 196.165 70.6278 196.346 70.6351 196.441C70.5124 196.072 70.4156 195.694 70.3455 195.311C70.3171 195.17 70.3006 195.027 70.296 194.883Z" fill="#0C0C0C"/>
<path d="M158.638 102.129C158.514 102.1 158.394 102.055 158.281 101.995C158.281 101.995 158.454 101.951 158.697 101.99C158.939 102.029 159.119 102.079 159.14 102.129C159.16 102.178 158.954 102.164 158.638 102.129Z" fill="#0C0C0C"/>
<path d="M106.482 115.196L106.383 115.237L106.532 115.123L106.482 115.196Z" fill="#0C0C0C"/>
<path d="M108.258 113.872C108.287 113.82 108.321 113.771 108.358 113.725C108.425 113.626 108.358 113.725 108.3 113.811L108.216 113.933C108.216 113.933 108.241 113.897 108.258 113.872Z" fill="#0C0C0C"/>
<path d="M93.3291 120.589C93.2727 120.7 93.2027 120.803 93.1206 120.896C93.0122 121.056 92.9788 121.105 93.0456 121.007C93.1123 120.909 93.1206 120.896 93.1456 120.859L93.3291 120.589Z" fill="#0C0C0C"/>
<path d="M130.377 103.529L130.216 103.581C129.998 103.612 130.031 103.617 130.216 103.581C130.278 103.555 130.343 103.539 130.41 103.533C130.41 103.533 130.365 103.521 130.377 103.529Z" fill="#0C0C0C"/>
<path d="M146.372 101.681L146.367 101.714L146.246 101.705L146.372 101.681Z" fill="#0C0C0C"/>
<path d="M105.314 113.435L105.201 113.521L105.243 113.459L105.314 113.435Z" fill="#0C0C0C"/>
<path d="M222.904 149.919C222.695 149.329 222.475 148.731 222.312 148.153C222.148 147.576 221.959 146.747 222.12 146.695C222.28 146.643 222.549 147.435 222.793 148.103C223.309 149.501 223.718 150.936 224.016 152.397C224.071 152.632 224.142 152.949 224.064 152.932C223.986 152.915 223.801 152.502 223.668 152.143L222.891 149.911L222.904 149.919Z" fill="#0C0C0C"/>
<path d="M221.767 193.17C221.929 192.616 222.109 191.823 222.248 191.881C222.387 191.94 222.175 192.675 222.043 193.16C221.911 193.645 221.722 194.503 221.57 194.436C221.419 194.369 221.648 193.663 221.767 193.17Z" fill="#0C0C0C"/>
<path d="M229.631 179.898L229.645 180.589C229.635 180.816 229.595 181.058 229.569 181.256C229.519 181.329 229.542 181.453 229.569 181.256C229.534 180.969 229.543 180.679 229.598 180.396C229.626 180.246 229.666 180.099 229.717 179.956L229.631 179.898Z" fill="#0C0C0C"/>
<path d="M222.84 192.355C222.826 192.387 222.806 192.416 222.782 192.441C222.698 192.564 222.701 192.692 222.64 192.65C222.579 192.608 222.64 192.65 222.629 192.535C222.617 192.419 222.807 192.351 222.84 192.355Z" fill="#0C0C0C"/>
<path d="M212.266 137.046L212.18 136.987L212.185 136.9L212.266 137.046Z" fill="#0C0C0C"/>
<path d="M219.403 160.59L219.424 160.586L219.439 160.723L219.403 160.59Z" fill="#0C0C0C"/>
<g filter="url(#filter0_d_35_247)">
<path d="M123.813 150.425C125.417 150.883 126.261 151.591 126.344 152.55C121.469 156.696 117.688 160.414 115 163.706L114.969 164.237C118.969 160.258 122.886 157.071 126.719 154.675L127.125 156.8C125.021 157.987 122.771 159.935 120.375 162.643L120.282 164.237L121.938 163.175H124.063L125.563 164.768L125.469 166.362L124.907 166.893L124.875 167.425L125.344 167.956H125.875L126.563 165.831H127.625L128.063 167.425L127.344 170.081L127.094 174.331H127.625L130.282 173.8L130.813 174.331L131.344 173.8L132.25 176.456H133.313L133.407 175.393H135L135.344 178.05L134.157 180.175L134.563 181.768H130.313L128.657 183.362L127.094 182.831L127 183.893H126.469L126 183.362H125.469L125.219 187.081L125.344 193.456C124.636 193.456 124.24 194.164 124.157 195.581L123.563 196.112H123.032L123.219 193.456H122.688C122.5 196.289 122.052 197.706 121.344 197.706C120.636 197.706 120.219 195.935 120.094 192.393H119.563L119.282 197.175H118.75C118.042 197.175 117.813 195.227 118.063 191.331L116.532 189.737L117.25 187.081L117.5 183.362L100.907 184.956L97.3129 183.362L97.3441 182.831C97.5316 181.06 97.9379 180.175 98.5629 180.175C98.6254 179.112 98.1254 178.581 97.0629 178.581L97.7504 175.925H97.2191C99.6566 171.779 102.542 168.237 105.875 165.3L105.844 165.831L99.4691 173.8V174.331H100C100.896 171.81 104.334 167.737 110.313 162.112L110.282 162.643L106.844 166.893H107.375C111.625 161.81 117.105 156.321 123.813 150.425ZM118.407 152.018L118.375 152.55L114.969 155.737L115.032 155.206L118.407 152.018ZM112.719 157.862L112.688 158.393L108.719 162.112L108.75 161.581L112.719 157.862ZM108.157 162.643L108.125 163.175L105.875 165.3L105.907 164.768L108.157 162.643ZM118.125 164.768C118.084 165.706 115.99 168.008 111.844 171.675L109.563 174.331H110.094C114.052 169.727 117.032 167.425 119.032 167.425L119.125 165.831L118.125 164.768ZM119.688 165.3L119.563 167.425L121.094 167.956L121.188 166.893L119.688 165.3ZM111.657 174.862L111.625 175.393H113.219L118.563 174.862L118.938 169.018C114.792 172.914 112.365 174.862 111.657 174.862ZM119.438 169.55L119.219 172.737H119.75L119.969 169.55H119.438ZM155.375 152.143C157.73 153.081 159.677 154.675 161.219 156.925L160.688 157.456C161.25 159.935 162.136 161.175 163.344 161.175L163.875 160.643L165.469 167.018L164.938 169.143L165.469 170.737C164.802 177.071 161.084 184.154 154.313 191.987C153.25 191.987 152.719 192.341 152.719 193.05L152.188 192.518H151.657L148.469 193.581L145.282 193.05H144.75V193.581L149 194.643V195.175H145.282L140.5 191.456V191.987L141.563 194.643H141.032C139.948 194.331 138.709 192.206 137.313 188.268H136.782V189.331L137.844 192.518C136.511 192.518 135.271 188.091 134.125 179.237C137.021 165.425 139.5 158.518 141.563 158.518C141.563 157.477 142.271 156.591 143.688 155.862H144.219C141.386 159.341 139.969 161.643 139.969 162.768L143.688 157.987C143.688 156.925 147.584 154.977 155.375 152.143ZM142.625 180.3V182.956L143.157 188.268C152.365 179.748 156.969 171.956 156.969 164.893V161.175L157.5 161.706L159.094 161.175V160.643L158.563 160.112V159.581C157.021 159.581 153.125 161.706 146.875 165.956C144.042 172.143 142.625 176.925 142.625 180.3ZM158.032 162.768L157.5 168.612V169.143H158.032L159.094 164.893L158.563 162.768H158.032ZM139.438 163.3L136.25 172.331L136.782 173.925L136.25 173.393H135.719V173.925L136.25 176.581H136.782V174.987L136.25 174.456C137.167 174.456 138.052 172.154 138.907 167.55C139.615 167.55 139.969 166.664 139.969 164.893V163.3H139.438ZM148.469 191.987V192.518H149L151.125 191.987V191.456H150.063L148.469 191.987ZM192.938 150.425C194.542 150.883 195.386 151.591 195.469 152.55C190.594 156.696 186.813 160.414 184.125 163.706L184.094 164.237C188.094 160.258 192.011 157.071 195.844 154.675L196.25 156.8C194.146 157.987 191.896 159.935 189.5 162.643L189.407 164.237L191.063 163.175H193.188L194.688 164.768L194.594 166.362L194.032 166.893L194 167.425L194.469 167.956H195L195.688 165.831H196.75L197.188 167.425L196.469 170.081L196.219 174.331H196.75L199.407 173.8L199.938 174.331L200.469 173.8L201.375 176.456H202.438L202.532 175.393H204.125L204.469 178.05L203.282 180.175L203.688 181.768H199.438L197.782 183.362L196.219 182.831L196.125 183.893H195.594L195.125 183.362H194.594L194.344 187.081L194.469 193.456C193.761 193.456 193.365 194.164 193.282 195.581L192.688 196.112H192.157L192.344 193.456H191.813C191.625 196.289 191.177 197.706 190.469 197.706C189.761 197.706 189.344 195.935 189.219 192.393H188.688L188.407 197.175H187.875C187.167 197.175 186.938 195.227 187.188 191.331L185.657 189.737L186.375 187.081L186.625 183.362L170.032 184.956L166.438 183.362L166.469 182.831C166.657 181.06 167.063 180.175 167.688 180.175C167.75 179.112 167.25 178.581 166.188 178.581L166.875 175.925H166.344C168.782 171.779 171.667 168.237 175 165.3L174.969 165.831L168.594 173.8V174.331H169.125C170.021 171.81 173.459 167.737 179.438 162.112L179.407 162.643L175.969 166.893H176.5C180.75 161.81 186.23 156.321 192.938 150.425ZM187.532 152.018L187.5 152.55L184.094 155.737L184.157 155.206L187.532 152.018ZM181.844 157.862L181.813 158.393L177.844 162.112L177.875 161.581L181.844 157.862ZM177.282 162.643L177.25 163.175L175 165.3L175.032 164.768L177.282 162.643ZM187.25 164.768C187.209 165.706 185.115 168.008 180.969 171.675L178.688 174.331H179.219C183.177 169.727 186.157 167.425 188.157 167.425L188.25 165.831L187.25 164.768ZM188.813 165.3L188.688 167.425L190.219 167.956L190.313 166.893L188.813 165.3ZM180.782 174.862L180.75 175.393H182.344L187.688 174.862L188.063 169.018C183.917 172.914 181.49 174.862 180.782 174.862ZM188.563 169.55L188.344 172.737H188.875L189.094 169.55H188.563Z" fill="#EF0000"/>
</g>
<defs>
<filter id="filter0_d_35_247" x="89.0629" y="142.425" width="123.406" height="63.2812" filterUnits="userSpaceOnUse" color-interpolation-filters="sRGB">
<feFlood flood-opacity="0" result="BackgroundImageFix"/>
<feColorMatrix in="SourceAlpha" type="matrix" values="0 0 0 0 0 0 0 0 0 0 0 0 0 0 0 0 0 0 127 0" result="hardAlpha"/>
<feOffset/>
<feGaussianBlur stdDeviation="4"/>
<feComposite in2="hardAlpha" operator="out"/>
<feColorMatrix type="matrix" values="0 0 0 0 0.937255 0 0 0 0 0 0 0 0 0 0 0 0 0 1 0"/>
<feBlend mode="normal" in2="BackgroundImageFix" result="effect1_dropShadow_35_247"/>
<feBlend mode="normal" in="SourceGraphic" in2="effect1_dropShadow_35_247" result="shape"/>
</filter>
</defs>
</svg>
