<svg width="22" viewBox="0 0 22 578" xmlns="http://www.w3.org/2000/svg">
<path d="M21.2004 6.87592C19.6238 2.71418 15.7062 6.2484e-07 11.1674 4.36993e-07C7.0109 2.64964e-07 4.001 1.94516 1.75552 6.01643C0.656663 7.91636 0.608886 8.50443 0.608886 15.9684C0.608886 23.3419 0.704438 24.0205 1.75552 26.1466C2.80659 28.2275 2.85437 28.9513 2.85437 35.6462C2.80659 42.2507 2.71104 43.065 1.70774 45.1459C0.704437 47.2267 0.608885 47.9957 0.608884 55.324C0.608884 62.6976 0.704436 63.3761 1.75551 65.5022C2.75881 67.5831 2.85437 68.3069 2.85437 74.9114C2.80659 81.4706 2.71104 82.2849 1.70774 84.1848C0.704435 86.1752 0.608883 86.8538 0.608882 94.2273C0.608882 101.601 0.704434 102.279 1.75551 104.405C2.75881 106.486 2.85436 107.255 2.85436 113.905C2.85436 120.51 2.75881 121.324 1.70773 123.405C0.704433 125.486 0.608881 126.255 0.608881 133.583C0.60888 141.047 0.656656 141.635 1.75551 143.716C2.80659 145.751 2.90214 146.385 2.85436 153.261C2.85436 160.046 2.75881 160.77 1.70773 162.579C0.656655 164.434 0.608879 165.067 0.608879 172.486C0.608878 179.905 0.704431 180.538 1.75551 182.664C2.80659 184.745 2.90214 185.424 2.80658 191.757C2.75881 197.818 2.61548 198.859 1.70773 200.804C0.70443 202.84 0.608877 203.699 0.608877 210.937C0.608877 218.401 0.656653 218.989 1.75551 221.07C2.85436 223.151 2.90214 223.739 2.85436 230.343C2.80658 236.676 2.71103 237.626 1.70773 239.662C0.704428 241.743 0.608876 242.512 0.608875 249.84C0.608875 257.214 0.704427 257.892 1.7555 260.018C2.75881 262.099 2.85436 262.823 2.85436 269.428C2.80658 275.987 2.71103 276.801 1.70773 278.701C0.704426 280.691 0.608874 281.37 0.608873 288.743C0.608873 296.117 0.704425 296.796 1.7555 298.922C2.80658 301.003 2.85436 301.726 2.85436 308.421C2.80658 315.026 2.71103 315.84 1.70773 317.921C0.704424 320.002 0.608872 320.771 0.608872 328.099C0.608871 335.518 0.704424 336.151 1.7555 338.277C2.80658 340.403 2.90213 341.037 2.80658 347.505C2.7588 353.793 2.66325 354.698 1.70772 356.553C0.704423 358.453 0.60887 359.267 0.60887 366.55C0.608869 373.924 0.704422 374.602 1.70772 376.728C2.7588 378.809 2.85435 379.578 2.85435 386.228C2.85435 392.832 2.7588 393.647 1.70772 395.727C0.704421 397.808 0.608868 398.577 0.608868 405.906C0.608868 413.37 0.656644 413.958 1.7555 416.039C2.85435 418.119 2.90213 418.707 2.85435 425.312C2.80657 431.645 2.71102 432.595 1.70772 434.631C0.704419 436.712 0.608867 437.481 0.608866 444.809C0.608866 452.273 0.656642 452.861 1.7555 454.942C2.85435 457.023 2.90212 457.611 2.85435 464.441C2.80657 471.046 2.71102 471.951 1.70772 473.986C0.704417 476.067 0.608865 476.881 0.608864 484.164C0.608864 491.628 0.65664 492.217 1.75549 494.297C2.85435 496.378 2.90212 496.966 2.85435 503.707C2.80657 510.266 2.71102 511.125 1.70772 513.025C0.704415 515.016 0.608863 515.694 0.608863 523.068C0.608862 530.486 0.704415 531.12 1.75549 533.246C2.80657 535.327 2.90212 536.005 2.80657 542.338C2.75879 548.4 2.61546 549.44 1.70771 551.386C0.704414 553.421 0.608861 554.281 0.608861 561.519C0.60886 568.983 0.656637 569.571 1.75549 571.471C3.23655 574.14 4.47874 575.451 6.81977 576.537C10.7852 578.482 16.5661 577.261 19.2894 573.868C21.4871 571.109 21.8215 569.571 21.8693 561.473C21.8693 553.557 21.5826 551.883 19.6716 549.44C18.6205 548.129 18.5249 547.586 18.5249 542.157C18.5249 537.724 18.6683 536.186 19.1938 535.779C19.576 535.508 20.3404 534.241 20.9138 532.974C21.8693 530.848 21.9171 530.079 21.7737 522.434L21.6304 514.156L20.1016 511.804C18.525 509.452 18.525 509.406 18.525 503.616C18.525 497.826 18.525 497.781 20.1016 495.428L21.6304 493.076L21.7737 485.114C21.9648 476.52 21.6304 474.529 19.6716 472.086C18.5727 470.729 18.525 470.322 18.525 464.306C18.525 460.189 18.7161 457.882 19.0505 457.656C19.3372 457.52 20.1016 456.299 20.7227 455.032C21.7737 452.861 21.8693 452.182 21.8693 444.809C21.8693 437.435 21.7737 436.757 20.7227 434.585C20.1016 433.319 19.3372 432.097 19.0505 431.962C18.7161 431.736 18.525 429.519 18.525 425.583C18.525 419.567 18.525 419.522 20.0538 417.169L21.6304 414.817L21.7737 406.856C21.9648 398.261 21.6304 396.27 19.6716 393.827C18.5727 392.47 18.525 392.018 18.525 386.363C18.525 380.664 18.6205 380.211 19.6716 378.854C21.5826 376.366 21.9648 374.15 21.7737 365.6L21.6304 357.638L20.1016 355.286C18.525 352.934 18.525 352.889 18.525 347.098C18.525 343.344 18.7161 341.172 19.0505 340.946C19.3372 340.811 20.1016 339.589 20.7227 338.323C21.7737 336.151 21.8693 335.473 21.8693 328.099C21.8693 320.726 21.7737 320.047 20.7227 317.876C20.1016 316.609 19.3372 315.388 19.0505 315.252C18.2383 314.754 18.3339 302.133 19.1938 301.455C19.576 301.184 20.3405 299.917 20.9138 298.65C21.8693 296.524 21.9171 295.755 21.7737 288.11L21.6304 279.832L20.1016 277.48C18.525 275.127 18.525 275.082 18.525 269.066C18.525 265.13 18.7161 262.914 19.0505 262.687C19.3372 262.552 20.1016 261.33 20.7227 260.064C21.7737 257.892 21.8693 257.214 21.8693 249.84C21.8693 242.467 21.7737 241.788 20.7227 239.617C20.1016 238.35 19.3372 237.129 19.0505 236.993C18.7161 236.767 18.525 234.55 18.525 230.615C18.525 224.598 18.525 224.553 20.1016 222.201L21.6304 219.849L21.7738 211.887C21.9649 203.337 21.5826 201.121 19.6716 198.633C18.6205 197.276 18.525 196.778 18.525 191.485C18.525 186.374 18.6205 185.65 19.4327 184.971C21.296 183.388 21.8693 180.493 21.8693 172.758C21.8693 164.841 21.5349 163.077 19.7194 160.725C18.5727 159.277 18.525 158.87 18.525 153.215C18.525 147.244 18.525 147.199 20.1016 144.847L21.6304 142.494L21.7738 134.216C21.9171 126.571 21.8693 125.802 20.9138 123.676C20.3405 122.41 19.576 121.143 19.1938 120.871C18.2383 120.102 18.2383 107.708 19.1938 106.939C19.576 106.667 20.3405 105.401 20.9138 104.134C21.8693 102.008 21.9171 101.239 21.7738 93.594L21.6304 85.3157L20.1016 82.9634C18.525 80.6111 18.525 80.5659 18.525 74.5495C18.525 70.6139 18.7161 68.3973 19.0505 68.1712C19.3372 68.0354 20.1016 66.8141 20.7227 65.5474C21.7738 63.3761 21.8693 62.6976 21.8693 55.324C21.8693 47.9505 21.7738 47.272 20.7227 45.1006C20.1016 43.834 19.3372 42.6126 19.0505 42.4769C18.7161 42.2507 18.525 39.9437 18.525 35.8272C18.525 29.856 18.5728 29.4036 19.6716 28.0465C20.2927 27.2323 21.0093 25.9204 21.3438 25.0609C22.1082 22.8896 22.0126 9.00203 21.2004 6.87592ZM14.034 20.7182C12.6963 19.904 10.3075 19.6778 8.39641 20.1754L7.05868 20.4921L7.05868 15.5161C7.05868 10.0425 7.63199 8.00683 9.49527 6.74021C11.1197 5.69978 12.2185 5.83549 13.7951 7.32829L15.1806 8.64014L15.1806 15.0185L15.1806 21.3968L14.034 20.7182ZM14.1773 60.0286C13.1263 59.1239 9.49526 58.8525 7.91865 59.5762C7.10645 59.8929 7.05868 59.5762 7.05868 55.5955C7.05868 51.3885 7.10645 51.2528 7.96642 51.7051C9.30416 52.3837 12.1707 52.248 13.7473 51.4789L15.1806 50.7552L15.1806 55.8216L15.1806 60.8881L14.1773 60.0286ZM13.5085 98.6604C11.8363 97.7557 10.1164 97.7105 7.91865 98.5247C7.15423 98.8414 7.05867 98.4795 7.05867 94.6796C7.05867 90.8798 7.10645 90.5631 7.91865 90.8798C9.49526 91.6036 13.1263 91.3322 14.1773 90.4274L15.1806 89.5679L15.1806 94.5892L15.1806 99.6104L13.5085 98.6604ZM13.7473 137.88C12.1707 137.111 9.30416 136.976 7.96642 137.654C7.10645 138.107 7.05867 137.971 7.05867 133.809C7.05867 129.919 7.44088 128.697 8.25308 129.964C8.68307 130.643 12.5052 130.507 13.5562 129.738C14.034 129.376 14.6073 129.059 14.8462 129.059C15.0373 129.059 15.1806 131.185 15.1806 133.809L15.1806 138.604L13.7473 137.88ZM14.1296 177.372C12.2663 176.241 10.5463 176.06 8.73084 176.738L7.05867 177.417L7.05867 173.074C7.05867 169.139 7.15422 168.777 7.91864 169.093C9.92525 169.817 11.6452 169.772 13.4129 168.958L15.1806 168.053L15.1806 173.029L15.1806 178.005L14.1296 177.372ZM14.8462 215.913C14.6073 215.913 14.034 215.596 13.5562 215.234C12.5052 214.465 8.68306 214.33 8.25307 215.008C7.48865 216.23 7.05867 215.144 7.05867 211.887L7.05867 208.268L9.63859 208.539C11.4541 208.72 12.6485 208.585 13.6996 208.087L15.1806 207.409L15.1806 211.661C15.1806 214.013 15.0373 215.913 14.8462 215.913ZM14.1773 254.545C13.1262 253.64 9.49526 253.369 7.91864 254.092C7.10644 254.409 7.05867 254.092 7.05867 250.293C7.05867 246.493 7.15422 246.131 7.91864 246.448C10.1163 247.262 11.8363 247.217 13.5085 246.312L15.1806 245.362L15.1806 250.383L15.1806 255.404L14.1773 254.545ZM13.5085 293.177C11.8363 292.272 10.1163 292.227 7.91864 293.041C7.15422 293.358 7.05867 292.996 7.05867 289.241C7.05867 285.17 7.05867 285.079 8.06197 285.622C9.49525 286.346 11.9318 286.255 13.6996 285.396L15.1806 284.627L15.1806 289.377L15.1806 294.127L13.5085 293.177ZM13.4129 332.532C11.6452 331.718 9.92524 331.673 7.91864 332.397C7.15422 332.713 7.05866 332.351 7.05866 328.597L7.05866 324.48L8.3964 324.797C10.3074 325.294 12.6963 325.068 14.034 324.254L15.1806 323.575L15.1806 328.506L15.1806 333.437L13.4129 332.532ZM13.9862 371.345C12.6485 370.531 10.3074 370.305 8.3964 370.802L7.05866 371.164L7.05866 367.274C7.05866 363.519 7.10644 363.383 7.96641 363.836C9.30415 364.514 12.1707 364.379 13.7473 363.61L15.1806 362.886L15.1806 367.5L15.1806 372.069L13.9862 371.345ZM13.7473 410.203C12.1707 409.434 9.30414 409.298 7.96641 409.977C7.10644 410.429 7.05866 410.294 7.05866 406.313L7.05866 402.196L8.39639 402.558C10.3074 403.101 12.6963 402.875 14.034 402.061L15.1806 401.382L15.1806 406.132L15.1806 410.927L13.7473 410.203ZM13.7951 449.287C12.4096 448.337 9.92523 448.247 7.91863 449.061C7.15421 449.378 7.05866 449.061 7.05866 445.261C7.05866 441.461 7.15421 441.099 7.91863 441.416C9.92523 442.14 11.6452 442.095 13.4129 441.28L15.1806 440.376L15.1806 445.306L15.1806 450.282L13.7951 449.287ZM13.7951 488.643C12.4096 487.693 9.92523 487.602 7.91863 488.417C7.15421 488.733 7.05866 488.417 7.05866 484.436C7.05866 480.229 7.10643 480.093 7.96641 480.546C9.30414 481.224 12.1707 481.088 13.7473 480.319L15.1806 479.596L15.1806 484.617L15.1806 489.638L13.7951 488.643ZM13.5084 527.546C11.8363 526.596 9.87745 526.551 7.91863 527.365C7.15421 527.637 7.05865 527.32 7.05865 523.52C7.05865 519.72 7.10643 519.404 7.91863 519.72C9.49524 520.444 13.1262 520.173 14.1773 519.268L15.1806 518.408L15.1806 523.43L15.1806 528.451L13.5084 527.546ZM13.7951 570.159C12.2185 571.651 11.1196 571.787 9.49524 570.747C7.72752 569.525 7.05865 567.399 7.05865 562.695L7.05865 558.352L8.30084 558.804C10.0686 559.438 12.1707 559.347 13.7473 558.578L15.1806 557.854L15.1806 563.373C15.1806 568.802 15.1806 568.847 13.7951 570.159ZM10.8808 39.039C10.0208 39.039 9.92525 38.7223 9.92525 35.6462C9.92525 33.113 10.0686 32.2535 10.5463 32.2535C11.6452 32.2535 11.8363 32.7511 11.8363 35.9629C11.8363 38.7223 11.7407 39.039 10.8808 39.039ZM10.8808 77.9422C10.0208 77.9422 9.92525 77.6255 9.92525 74.7757C9.92525 71.9258 10.0208 71.6091 10.8808 71.6091C11.7407 71.6091 11.8363 71.9258 11.8363 74.7757C11.8363 77.6255 11.7407 77.9422 10.8808 77.9422ZM10.7852 117.207C10.0208 117.343 9.92525 116.936 9.92525 113.95C9.92525 111.372 10.0686 110.512 10.5463 110.512C11.693 110.512 11.8841 111.1 11.7407 114.086C11.6452 116.484 11.4541 117.072 10.7852 117.207ZM10.8808 156.201C10.0208 156.201 9.92525 155.884 9.92525 153.035C9.92525 150.185 10.0208 149.868 10.8808 149.868C11.7407 149.868 11.8363 150.185 11.8363 153.035C11.8363 155.884 11.7407 156.201 10.8808 156.201ZM10.8808 194.2C10.0208 194.2 9.92524 193.883 9.92524 191.485C9.92524 189.54 10.1163 188.771 10.5463 188.771C11.6452 188.771 11.8363 189.269 11.8363 191.802C11.8363 193.883 11.7407 194.2 10.8808 194.2ZM10.8808 233.555C10.0208 233.555 9.92524 233.239 9.92524 230.389C9.92524 227.539 10.0208 227.222 10.8808 227.222C11.7407 227.222 11.8363 227.539 11.8363 230.389C11.8363 233.239 11.7407 233.555 10.8808 233.555ZM10.8808 272.458C10.0208 272.458 9.92524 272.142 9.92524 269.292C9.92524 266.442 10.0208 266.125 10.8808 266.125C11.7407 266.125 11.8363 266.442 11.8363 269.292C11.8363 272.142 11.7407 272.458 10.8808 272.458ZM10.7852 311.724C10.0208 311.859 9.92524 311.452 9.92524 308.467C9.92524 305.888 10.0686 305.029 10.5463 305.029C11.693 305.029 11.8841 305.617 11.7407 308.602C11.6452 311 11.4541 311.588 10.7852 311.724ZM10.8808 350.265C10.0208 350.265 9.92524 349.948 9.92524 347.325C9.92524 345.198 10.1163 344.384 10.5463 344.384C11.6452 344.384 11.8363 344.882 11.8363 347.641C11.8363 349.948 11.7407 350.265 10.8808 350.265ZM10.7852 389.53C10.0208 389.666 9.92523 389.304 9.92524 386.499C9.92524 383.559 10.0208 383.287 10.8808 383.287C11.7885 383.287 11.8841 383.514 11.7407 386.318C11.6452 388.806 11.4541 389.394 10.7852 389.53ZM10.8808 428.524C10.0208 428.524 9.92523 428.207 9.92523 425.357C9.92523 422.507 10.0208 422.191 10.8808 422.191C11.7407 422.191 11.8363 422.507 11.8363 425.357C11.8363 428.207 11.7407 428.524 10.8808 428.524ZM10.7852 467.789C10.0208 467.925 9.92523 467.517 9.92523 464.532C9.92523 461.365 10.0208 461.094 10.8808 461.094C11.7885 461.094 11.8841 461.32 11.7407 464.351C11.6452 467.065 11.4541 467.653 10.7852 467.789ZM10.8808 506.783C10.0208 506.783 9.92523 506.466 9.92523 503.616C9.92523 500.766 10.0208 500.45 10.8808 500.45C11.7407 500.45 11.8363 500.766 11.8363 503.616C11.8363 506.466 11.7407 506.783 10.8808 506.783ZM10.7852 545.143C10.0208 545.279 9.92523 544.917 9.92523 542.338C9.92523 540.167 10.1163 539.353 10.5463 539.353C11.6452 539.353 11.8841 539.941 11.7407 542.519C11.6452 544.464 11.4063 545.053 10.7852 545.143ZM10.8808 201.437C10.6419 201.437 10.403 201.256 10.403 200.985C10.403 200.759 10.6419 200.533 10.8808 200.533C11.1674 200.533 11.3585 200.759 11.3585 200.985C11.3585 201.256 11.1674 201.437 10.8808 201.437Z" fill="url(#paint0_linear_157_66)"/>
<defs>
    <linearGradient id="paint0_linear_157_66" x1="11.2391" y1="577.464" x2="11.2391" y2="4.39959e-07" gradientUnits="userSpaceOnUse">
    <stop stop-color="#090909"/>
    <stop offset="0.43" stop-color="rgba(0,0,0,0)" stop-opacity="0"/>
    </linearGradient>
</defs>
</svg>
