<svg width="22" viewBox="0 0 22 578" xmlns="http://www.w3.org/2000/svg">
<path d="M10.9 201.4c.3-0 .5-.1.5-.4 0-.2-.2-.5-.5-.5-.3 0-.5.3-.5.5 0 .3.2.4.5.4Zm-.1 343.7c.6 0 .8-.6.9-2.6.2-2.6-.1-3.1-1.2-3.1-.4 0-.6.8-.6 2.9 0 2.6.1 3 .9 2.8Zm.1-38.3c.8 0 .9-.3.9-3.2 0-2.8-.1-3.2-.9-3.2-.9 0-1 .4-1 3.2 0 2.9.1 3.2 1 3.2Zm-.1-39c.7-.1.8-.7.9-3.4.2-3.1.1-3.3-.8-3.3s-1 .3-1 3.4c0 3 .1 3.4.9 3.3Zm.1-39.3c.8 0 .9-.3.9-3.1 0-2.9-.1-3.2-.9-3.2-.9 0-1 .3-1 3.2 0 2.8.1 3.1 1 3.1Zm-.1-39c.7-.1.8-.7.9-3.2.2-2.8.1-3-.8-3s-1 .3-1 3.2c0 2.8.1 3.2.9 3Zm.1-39.2c.8 0 .9-.4.9-2.7 0-2.7-.2-3.2-1.3-3.2-.4 0-.6.8-.6 2.9 0 2.6.1 3 1 3Zm-.1-38.6c.7-.1.8-.7.9-3.1.2-3 0-3.6-1.2-3.6-.4 0-.6.9-.6 3.5 0 3 .1 3.4.9 3.2Zm.1-39.2c.8 0 .9-.4.9-3.2 0-2.9-.1-3.2-.9-3.2-.9 0-1 .3-1 3.2 0 2.8.1 3.2 1 3.2Zm0-38.9c.8 0 .9-.4.9-3.2 0-2.9-.1-3.2-.9-3.2-.9 0-1 .3-1 3.2 0 2.8.1 3.2 1 3.2Zm0-39.4c.8 0 .9-.3.9-2.4 0-2.5-.2-3-1.3-3-.4 0-.6.7-.6 2.7 0 2.4.1 2.7 1 2.7Zm0-38c.8 0 .9-.3.9-3.2 0-2.8-.1-3.1-.9-3.1-.9 0-1 .3-1 3.1 0 2.9.1 3.2 1 3.2Zm-.1-39c.7-.1.8-.7.9-3.1.2-3 0-3.6-1.2-3.6-.4 0-.6.9-.6 3.5 0 2.9.1 3.3.9 3.2Zm.1-39.3c.8 0 .9-.3.9-3.1 0-2.9-.1-3.2-.9-3.2-.9 0-1 .3-1 3.2 0 2.8.1 3.1 1 3.1Zm0-38.9c.8 0 .9-.3.9-3 0-3.2-.2-3.7-1.3-3.7-.4 0-.6.8-.6 3.3 0 3.1.1 3.4 1 3.4Zm2.9 531.2c1.4-1.4 1.4-1.4 1.4-6.8v-5.5l-1.5.7c-1.5.7-3.6.8-5.4.2l-1.2-.4v4.3c0 4.7.6 6.8 2.4 8 1.6 1.1 2.7 1 4.3-.5Zm-.3-42.7 1.7 1v-5.1-5l-1 .9c-1.1.9-4.7 1.1-6.3.4-.8-.3-.8 0-.8 3.8s.1 4.1.8 3.9c2-.8 3.9-.8 5.6.1Zm.3-38.9 1.4 1v-5-5l-1.5.7c-1.5.8-4.4.9-5.7.2-.9-.4-.9-.3-.9 3.9 0 4 .1 4.3.8 4 2-.8 4.5-.7 5.9.2Zm0-39.3 1.4 1v-5-4.9l-1.8.9c-1.8.8-3.5.8-5.5.1-.7-.3-.8.1-.8 3.9s.1 4.1.8 3.8c2-.9 4.5-.8 5.9.2Zm-.1-39.1 1.5.7v-4.8-4.7l-1.2.7c-1.3.8-3.7 1-5.6.5l-1.3-.4v4.1c0 4 0 4.1.9 3.7 1.3-.7 4.2-.6 5.7.2Zm.3-38.9 1.2.8v-4.6-4.6l-1.5.7c-1.5.8-4.4.9-5.7.2-.9-.4-.9-.3-.9 3.5v3.9l1.3-.4c1.9-.5 4.2-.3 5.6.5Zm-.6-38.8 1.8.9v-4.9-4.9l-1.2.7c-1.3.8-3.7 1-5.6.5l-1.3-.3v4.1c0 3.8.1 4.1.8 3.8 2-.7 3.7-.7 5.5.1Zm.1-39.3 1.7.9v-4.7-4.8l-1.5.8c-1.8.9-4.2.9-5.6.2-1-.5-1-.4-1 3.6 0 3.8.1 4.2.8 3.8 2.2-.8 3.9-.7 5.6.2Zm.7-38.7 1 .9v-5-5l-1.7.9c-1.7.9-3.4 1-5.6.1-.7-.3-.8.1-.8 3.9 0 3.8 0 4.1.8 3.8 1.6-.7 5.2-.5 6.3.4Zm.6-38.6c.2 0 .4-1.9.4-4.2v-4.3l-1.5.7c-1.1.5-2.2.6-4.1.4l-2.5-.2v3.6c0 3.2.4 4.3 1.2 3.1.4-.7 4.2-.5 5.3.2.4.4 1 .7 1.2.7Zm-.7-38.5 1.1.6v-5-4.9l-1.8.9c-1.8.8-3.5.8-5.5.1-.7-.3-.8 0-.8 4v4.3l1.6-.7c1.8-.6 3.6-.5 5.4.7Zm-.4-39.5 1.5.7v-4.8c0-2.6-.2-4.7-.4-4.7-.2 0-.8.3-1.2.6-1.1.8-4.9.9-5.3.3-.9-1.3-1.2-.1-1.2 3.8 0 4.2 0 4.3.9 3.9 1.3-.7 4.2-.6 5.7.2Zm-.2-39.2 1.7.9v-5-5l-1 .8c-1.1.9-4.7 1.2-6.3.5-.8-.3-.8 0-.8 3.8s.1 4.1.8 3.8c2.2-.8 3.9-.7 5.6.2ZM14.2 60l1 .9v-5.1-5l-1.5.7c-1.5.7-4.4.9-5.7.2-.9-.4-.9-.3-.9 3.9 0 4 0 4.3.8 4 1.6-.7 5.2-.5 6.3.4ZM14 20.7l1.2.7V15 8.6L13.8 7.3c-1.6-1.5-2.7-1.6-4.3-.6C7.6 8 7.1 10 7.1 15.5v5l1.3-.3c1.9-.5 4.3-.3 5.6.5ZM21.2 6.9c.8 2.1.9 16 .1 18.2-.3.8-1 2.1-1.6 2.9-1.1 1.4-1.2 1.9-1.2 7.8 0 4.1.2 6.5.6 6.7.2.1 1 1.3 1.6 2.6 1.1 2.2 1.2 2.9 1.2 10.2 0 7.4-.1 8.1-1.2 10.2-.6 1.3-1.4 2.5-1.6 2.7-.4.2-.6 2.4-.6 6.3 0 6.1 0 6.1 1.6 8.5l1.5 2.3.2 8.3c.1 7.6.1 8.4-.9 10.5-.6 1.3-1.3 2.6-1.7 2.8-1 .8-1 13.2 0 14 .4.2 1.1 1.5 1.7 2.8 1 2.1 1 2.9.9 10.5l-.2 8.3-1.5 2.3c-1.6 2.4-1.6 2.4-1.6 8.4 0 5.7.1 6.1 1.2 7.5 1.8 2.4 2.2 4.1 2.2 12.1 0 7.7-.6 10.6-2.5 12.2-.8.7-.9 1.4-.9 6.5 0 5.3.1 5.8 1.2 7.1 1.9 2.5 2.3 4.7 2.1 13.3l-.2 7.9-1.5 2.4c-1.6 2.4-1.6 2.4-1.6 8.4 0 4 .2 6.2.6 6.4.2.1 1 1.3 1.6 2.6 1.1 2.2 1.2 2.9 1.2 10.2 0 7.4-.1 8.1-1.2 10.3-.6 1.2-1.4 2.5-1.6 2.6-.4.2-.6 2.4-.6 6.4 0 6 0 6 1.6 8.4l1.5 2.3.2 8.3c.1 7.7.1 8.4-.9 10.5-.6 1.3-1.3 2.6-1.7 2.9-.9.6-1 13.3-.1 13.8.2.1 1 1.3 1.6 2.6 1.1 2.1 1.2 2.8 1.2 10.2 0 7.4-.1 8.1-1.2 10.2-.6 1.3-1.4 2.5-1.6 2.6-.4.3-.6 2.4-.6 6.2 0 5.8 0 5.8 1.6 8.2l1.5 2.3.2 8c.2 8.5-.2 10.8-2.1 13.3-1.1 1.3-1.2 1.8-1.2 7.5 0 5.6.1 6.1 1.2 7.4 1.9 2.5 2.3 4.5 2.1 13.1l-.2 7.9-1.5 2.4c-1.6 2.3-1.6 2.4-1.6 8.4 0 3.9.2 6.1.6 6.4.2.1 1 1.3 1.6 2.6 1.1 2.2 1.2 2.8 1.2 10.2 0 7.4-.1 8.1-1.2 10.2-.6 1.3-1.4 2.5-1.6 2.7-.4.2-.6 2.5-.6 6.6 0 6 .1 6.4 1.2 7.8 1.9 2.4 2.3 4.4 2.1 13l-.2 8-1.5 2.3c-1.6 2.4-1.6 2.4-1.6 8.2 0 5.8 0 5.9 1.6 8.2l1.5 2.4.2 8.2c.1 7.7.1 8.4-.9 10.6-.6 1.2-1.3 2.5-1.7 2.8-.5.4-.7 1.9-.7 6.4 0 5.4.1 5.9 1.2 7.2 1.9 2.5 2.2 4.2 2.2 12.1-.1 8.1-.4 9.6-2.6 12.4-2.7 3.4-8.5 4.6-12.5 2.6-2.3-1-3.6-2.4-5-5-1.1-1.9-1.2-2.5-1.2-10 0-7.2.1-8.1 1.1-10.1.9-2 1.1-3 1.1-9.1.1-6.3 0-7-1-9.1C.7 531.1.6 530.5.6 523.1S.7 515 1.7 513c1-1.9 1.1-2.7 1.2-9.3 0-6.7 0-7.3-1.1-9.4C.7 492.2.6 491.6.6 484.2c0-7.3.1-8.1 1.1-10.2 1-2 1.1-3 1.2-9.6 0-6.8 0-7.4-1.1-9.5-1.1-2-1.2-2.6-1.2-10.1 0-7.3.1-8.1 1.1-10.2 1-2 1.1-3 1.2-9.3 0-6.6 0-7.2-1.1-9.3-1.1-2-1.2-2.6-1.2-10.1 0-7.3.1-8.1 1.1-10.2 1.1-2.1 1.2-2.9 1.2-9.5 0-6.6-.1-7.4-1.2-9.5-1-2.1-1.1-2.8-1.1-10.1 0-7.3.1-8.1 1.1-10 1-1.9 1.1-2.8 1.1-9.1.1-6.5 0-7.1-1-9.2C.7 336.2.6 335.5.6 328.1c0-7.3.1-8.1 1.1-10.2 1-2.1 1.1-2.9 1.2-9.5 0-6.7-.1-7.4-1.1-9.5C.7 296.8.6 296.1.6 288.7c0-7.3.1-8 1.1-10 1-1.9 1.1-2.7 1.2-9.3 0-6.6-.1-7.3-1.1-9.4C.7 257.9.6 257.2.6 249.8c0-7.3.1-8.1 1.1-10.1 1-2.1 1.1-3 1.2-9.4 0-6.6 0-7.1-1.1-9.2C.7 219 .6 218.4.6 210.9c0-7.2.1-8.1 1.1-10.1.9-1.9 1.1-3 1.1-9 .1-6.4 0-7.1-1-9.1C.7 180.5.6 179.9.6 172.5s.1-8.1 1.1-9.9c1.1-1.8 1.2-2.6 1.2-9.3 0-6.9-.1-7.5-1.1-9.6C.7 141.6.6 141 .6 133.6c0-7.3.1-8.1 1.1-10.2 1.1-2.1 1.2-2.9 1.2-9.5 0-6.6-.1-7.4-1.1-9.5C.7 102.3.6 101.6.6 94.2c0-7.3.1-8 1.1-10 1-1.9 1.1-2.7 1.2-9.3 0-6.6-.1-7.3-1.1-9.4C.7 63.4.6 62.7.6 55.3c0-7.3.1-8.1 1.1-10.2 1-2 1.1-2.8 1.2-9.5 0-6.6-.1-7.4-1.1-9.5C.7 24 .6 23.3.6 16 .6 8.5.7 7.9 1.8 6 4 1.9 7 0 11.2 0c4.5 0 8.4 2.7 10 6.9Z" fill="url(#paint0_linear_157_66)"/>
<defs>
    <linearGradient id="paint0_linear_157_66" x1="11.2391" y1="577.464" x2="11.2391" y2="4.39959e-07" gradientUnits="userSpaceOnUse">
    <stop stop-color="#090909"/>
    <stop offset="0.43" stop-color="rgba(0,0,0,0)" stop-opacity="0"/>
    </linearGradient>
</defs>
</svg>
