<svg height="80" xmlns="http://www.w3.org/2000/svg" viewBox="0 0 1185 20"><path d="M91 7.28c.2-.77.5-1.47 2.5-1.05 1.1.28 2.8-.63 3.7-.28s.2.77.1 1.19c-.4 2.1 7.6 2.03 8.6 1.47-.6 4.06 10.1-4.69 25.6-2.45.6.07 0 1.75 5.6.56-1.1-3.5 7.8.21 8.5-.07 1.2-.63 8.9-.91 6.5.14s6.5 1.61 9.2.14c1.5-.49 8.6.49 10.3.07.6.21 1-.21 1.5-.28.8-.07 1.8-1.05 2.3.28.6-1.05 2.7-.07 3.6-.63 1.2-1.05 4.9-.49 5.5.28 1.1 1.12 3.7.91 5 1.89 3.4-.91 4.8-.7 6.3-.63 1.2 0 2.5.35 3.8-.21.8-.35.9.56 1.7.63h-.1s5.5 1.61 6.7 0a.5.35 0 01.9.07c.1.49.6.7 1.5.7 1.7-1.82 3.7-1.96 5.2-.91.4.28.4.42.9.07s1.3-.28 1.9-.35c3.4-.42 6.6-.21 9.2 1.12 1.6-1.4 4.4.91 6-.49 4.8-.77 10.8 1.19 10.7.42 6.2-.07 7.5-1.61 4.8-1.68-3.5.14 3.3-1.4 3.2-1.05-1.4 2.52.1 2.45 1.8 1.4 2.4.77 4.3-.28 6.3-.63 4.5-.63 5.4-.42 5.1-.21-.7.42 1.3.98-.5 1.19-2.8.21.4 1.89 1.6 0 .4-1.54 2.2-.98 3.8-.7.8.14 1.9.56 1.2-.42-.8-.56 3.9-.98 4.9-.14.4.28 0 .28-.3.28a3.5 2.45 0 002.8 0c.5-.77 1.1-.84 2.2-.35A5.3 3.71 0 00285 7c1.5-.21 3.8-.7 4.5.91.2.49 1.7.42 2.5.56.9-1.19 3.8-1.26 4.9-.7 4-.14 6.5 1.96 10.2 1.4a1 .7 0 003.2-.42c-3-2.17 9.3.35 10.4.84 8.9 2.8 5.3-1.19 5.7-1.89 7.1-3.01 8.1-.56 7 .63-3.8 1.33 14.9 2.73 10.2-.7 1.9-1.82 7.1 3.5 7.3 1.89.1-1.26-3.2-2.24-2.1-2.73s1.1-.35 1.6-.07c2.8-.7 5.1-.07 7.3-.07a1.2.84 0 003.2.35 23 16.1 0 0018.8-.42c1.1-.42 3 2.59 4.2.77.3 2.66 4.6 2.52 4 1.68s2.7-2.52 3.9-2.17c1.8.49 3.4 1.33 5.9 1.05 3.2 1.68 5.9 1.47 3.7.42-.3-.63 1.3-1.61 3-1.61a35.6 24.92 0 005.7-.21c1.2-.14 2.2 0 2.2.84 6 .56 4.2-.07 5.7-.42 1-.21 2.9-.49 3.7.63.3.49 3.7.35 4.4-.14a1 .7 0 011-.21c-2.4 1.96 18.4-1.96 16 1.54s4.2-1.12 6.2-.28 7.7-2.52 12.5-1.96c1.3.21 9.3-.28 3.6 2.17s2 .7 2.8.77a35.1 24.57 0 007.9-.07c2.5-.07-2.7-2.59-1.8-2.87s1.1-.28 1.2.42c.4.63 4.7-.07 6.3-.28 12.1.77 16.2 1.26 19.8-.07a6.5 4.55 0 004.1.14c5.1-2.59 17.2-.42 18.4.49a1.6 1.12 0 002.4-.14c1.9-1.61 4.8-.91 7.2-.84a11.4 7.98 0 0013.6-.21c2.3.77 5.5.49 6.7 1.82a2.7 1.89 0 002.9.98c6.5-.56 3.6-1.68 5.9-1.82s-.4.56 1.1.77.4 2.1 2 .56a5.1 3.57 0 008-.14 3.6 2.52 0 013-.49c1.7.98 5.4-2.87 11.4-1.19a3 2.1 0 014.4.77 5.8 4.06 0 007.6-.14c2.7-4.97 17.3 1.4 18.5-.28 4.8-5.18 17.2 2.8 20-.7 1.9 1.33 3.5-.42 5.4-.14 2.9 1.33 6.9.84 8.7.28 2.6 3.22.6-1.54 6.4 0a12.6 8.82 0 0112.5 1.26c8.2 2.94 13 2.24 14.6.42 14.8 1.82 15.6-1.05 19.2-.42 3.9 2.38 8.1-.28 12.1 1.12 11.2 1.54 13-.77 15.2.84a21.3 14.91 0 0016.9.07 11.1 7.77 0 016.3.21 17.1 11.97 0 0113-.07c8.9 3.01 5.2-1.33 12.5-.91a27.1 18.97 0 0125.1-.28c3.1 1.12 5.1.21 7.6.49a4.6 3.22 0 018 .91c.7 2.17 3-.77 9-.7a24 16.8 0 0011.4-.49 3.9 2.73 0 004.9.07 4.1 2.87 0 013.5-1.19c-4 3.99 6.4 1.82 9.4 2.24 2.4.35 1-1.05 5.7-.91 4.2 1.12 7.8.7 11.1 1.12a20.1 14.07 0 009.8.35 9.4 6.58 0 009.1.21 16.6 11.62 0 018-.21c3.7-1.68 7-.56 8.8-.56 3.4 1.05 11.8-.91 13.8-.14 1.7.63 3.5 1.47 5.3 0 1.3-.91 3.9.84 5.4.98 3.5.28 7-.07 10.6.42a16.4 11.48 0 009-.77 14.4 10.08 0 017.3-.35c.5 2.52 2.8-2.17 15.3-.28 4.8 1.68 5.9-.49 9.7.14 3.8-1.12 7.1.91 10.4-.14 2.6-2.31 6.1 1.75 6.9.21 6.5 2.38 7-2.52 15-.42a34.9 24.43 0 0015.6-.07c2.3-1.82 5.4.91 7.5.84 3.6-.07 7.4-.63 10.7-.21 5.9-.21 7.4 2.17 9.5 0 3.5 1.75 8.5-2.03 24.9-.63 7.5-.28 15.1.49 22.5-.35a14.8 10.36 0 008.1-.14 38.4 26.88 0 0016.9-.98 32.4 22.68 0 019-.77c8.6.14 32.6 1.05 37.4.21a1.9 1.33 0 001.2-.21V21H0V7.7c1.9.07.5 1.26 1.8 1.12.8-.07 1.2-.98 1.8-.84.5.21 11.7 0 11 1.26a29.2 20.44 0 016.3.14c1 .7 1.2-.98 2.5-.28 15.1 2.87 14-.84 17.9.07 8.5.7 8.9-2.31 9.8-2.59s1.7-.21 1.9-.91 1.9.21 1.9-.35c-.1-1.47 10.2-1.89 10.4.98.1 1.19 1.6.98 1.4-.21 1 1.68 6.8 1.82 6.3-.21-.1-.49.7-.63 1.5-.42 2 .42 3.6 1.26 5.9 1.26a1.1.77 0 01-.4.56c-.8-.07-1.9-.07-1.8.49s1.3.77 2.2.77a4.9 3.43 0 012.9.35c3-.49 2.8-.84 2.4-.77s-3.7-.77-3.3-1.05 4.5 1.19 5.8-.84c.5-.7 1.7 0 2.3.28Z"/></svg>