<svg width="38" viewBox="0 0 38 41" fill="none" xmlns="http://www.w3.org/2000/svg">
<path d="M14.1 39.7s0-5 0-6.4-.3-4.2 1.1-5.3c-3-.3-5.2-1.2-7.4-3.2s-3.2-4.9-3.2-9.6c0-3.2.5-5.3 2.1-7.4-.6-1.7-.7-4.3 0-6.4 3.3 0 6.3 2.3 7.4 3.2.9-.2 2.8-1.1 6.4-1.1s5.6.9 6.4 1.1C28 3.7 31 1.4 34.3 1.4c.8 2.1.7 4.7 0 6.4 1.6 2.1 2.2 4.2 2.2 7.4 0 4.7-1 7.7-3.2 9.6s-4.5 2.9-7.5 3.2c1.4 1.1 1.1 3.9 1.1 5.3 0 1.5 0 6.4 0 6.4" stroke-width="2" stroke-linecap="round" stroke-linejoin="round"/>
<path d="M14.1 35.4c-3 0-6-1.2-7.8-2.5C4.5 31.6 4 29.4 1.4 28" stroke-width="2" stroke-linecap="round" stroke-linejoin="round"/>
</svg>
