<svg xmlns="http://www.w3.org/2000/svg" fill="none" viewBox="0 0 256 256"><rect width="256" height="256" fill="#242938" rx="60"/><path fill="#BF2223" d="M124.3 86.4c.7-1.9 1.4-4.5 3.7-4.8 1.9.5 2.6 2.6 3.3 4.3 3.6 9.9 7 19.9 10.5 29.8l-35.2 20.2c5.9-16.5 12.2-32.8 17.7-49.5ZM106 27C92 54.1 80.1 82.3 70.8 111.5c-6.7 20.2-13.1 40.4-18.5 61-4.4 16.5-8.9 33-12.3 49.7 2.9 1.6 6 2.8 9 4.2 3.5 1.8 7.6 1.1 11.4 1.6 3.7.5 7.4.5 11.2.9 1.1 0 2.4.4 3.3-.4L90 218.8c.6-10 .1-20.3 2.3-30.1.5-2.8 1-5.6 1.5-8.4l66.2-9.5c3.6 12.2 6.8 24.6 8.8 37.2.7 3.9.6 8 1.2 11.9l11.9 8.6c4.9-.5 9.9-.8 14.8-1.3 3.5-.3 7-.2 10.3-1.3 3-1 6-2 8.9-3-1.8-8.8-4.7-17.3-6.8-26-5.6-22-11.2-44-17.5-65.7-3.2-10.3-7.4-20.3-10.8-30.5-2.2-7-5-13.8-7.8-20.6-6.9-18.3-15-36.2-24.6-53.1H106Z"/></svg>