<svg xmlns="http://www.w3.org/2000/svg" fill="none" viewBox="0 0 256 256"><rect width="256" height="256" fill="#242938" rx="60"/><path fill="#fff" d="M105.6 137.3c.7-13.9 7.5-26.1 17.7-34.8 10-8.5 23.5-13.7 38.2-13.7s28.1 5.2 38.1 13.7c10.2 8.7 17 20.9 17.8 34.8.8 14.2-4.9 27.5-15 37.3-10.2 10-24.7 16.3-40.9 16.3-16.3 0-30.8-6.3-41-16.3-10-9.8-15.7-23.1-14.9-37.3Z"/><path fill="#265787" d="M132.8 138.5c.4-7.1 3.9-13.4 9.1-17.8 5.1-4.4 12-7.1 19.6-7.1 7.5 0 14.4 2.7 19.6 7.1 5.2 4.4 8.7 10.7 9.1 17.8.4 7.3-2.6 14.1-7.7 19.2-5.2 5.1-12.7 8.3-21 8.3-8.4 0-15.8-3.2-21.1-8.3-5.1-5.1-8-11.9-7.6-19.2Z"/><path fill="#EA7600" d="M87.1 152.9c0 2.8.9 8.2 2.3 12.5 2.7 8.9 7.5 17.2 14.1 24.5 6.7 7.5 15 13.5 24.6 17.8 10.1 4.5 21.1 6.8 32.4 6.8 11.4-.1 22.3-2.4 32.4-6.9 9.6-4.3 17.9-10.4 24.7-17.9 6.6-7.3 11.3-15.6 14.1-24.6 1.4-4.5 2.3-9.1 2.6-13.7.4-4.5.2-9.1-.4-13.6-1.3-8.9-4.3-17.2-9-24.8-4.3-6.9-9.8-13-16.4-18.1L142.1 43.6s-.1 0-.2-.1c-4.3-3.3-11.6-3.3-16.4 0-4.9 3.4-5.4 9.1-1.1 12.6l27.7 22.7-84.4.1h-.1c-7 0-13.7 4.6-15.1 10.4-1.3 5.9 3.4 10.8 10.7 10.8v.1l42.7-.1-76.3 58.8c-.1.1-.2.2-.3.3-7.2 5.5-9.5 14.7-5 20.5 4.6 6 14.4 6 21.7.1l41.6-34.3s-.6 4.6-.5 7.4Zm107 15.5c-8.5 8.8-20.6 13.8-33.6 13.8s-25-4.9-33.6-13.7c-4.2-4.3-7.3-9.2-9.2-14.4-1.8-5.2-2.5-10.6-2.1-16.1.5-5.4 2.1-10.6 4.6-15.2 2.5-4.6 6-8.7 10.2-12.2 8.4-6.9 19-10.6 30.1-10.6s21.8 3.7 30.1 10.5c4.3 3.5 7.7 7.6 10.2 12.2 2.6 4.6 4.1 9.7 4.6 15.1.5 5.5-.2 11-2.1 16.1-1.9 5.3-5 10.2-9.2 14.5Z"/></svg>