<svg viewBox="0 0 256 256" fill="none" xmlns="http://www.w3.org/2000/svg">
<rect width="256" height="256" fill="#663399" rx="60"/>
<path d="M89 230a30.4 30.4 90 0013.7-3 22.2 22.2 90 009.6-8.9c2.4-3.9 3.5-8.9 3.5-14.8v-2.9H97.3v2.7a12.9 12.9 90 01-1.9 7.6c-1.3 1.8-3.2 2.7-5.7 2.7-5.3-.1-8-4-8-11.6V165.3a19.8 19.8 90 011.7-9.2c1.1-2.1 3.3-3.1 6.3-3.1a6.6 6.6 90 015.4 2.6c1.4 1.6 2.2 4.2 2.2 7.6v3.2h18.4v-3.3c0-8.8-2.4-15.6-7-20s-10.5-6.7-18.6-6.7-14.7 2.1-19.6 6.5-7.4 10.8-7.4 20v41.4c0 8.5 2.3 14.9 7 19.2 4.7 4.4 11 6.5 18.9 6.5Zm58.6-.1c8.1 0 14.5-2.4 19-7s6.8-12.7 6.8-19.9-1.5-13-4.3-17.3-7.4-7.9-13.8-10.8l-6.2-2.7a16.3 16.3 90 01-6.3-4.4c-1.2-1.7-1.8-4-1.8-7 0-5.9 2.5-8.8 7.4-8.8 2.8 0 4.4.2 5.6 2.8s1.8 5.4 1.7 8.3h16.8c-.2-8.7-2.4-15.4-6.6-20s-9.8-6.9-17.6-6.9-14.1 2.4-18.5 7.1-6.6 11.7-6.6 18.5 1.2 12.1 3.8 15.9 6.7 7 12.5 9.8l6.5 3.1a18.3 18.3 90 017.4 5.3c1.5 2 2.2 3.7 2.2 7.5s-.6 6.6-1.7 8.3-3 2.6-5.8 2.6c-5.4 0-8.2-4-8.3-11.8H122.4c.2 8.8 2.4 15.7 6.7 20.4s10.5 7.1 18.6 7.1Zm56.5.1c8.1 0 14.5-2.4 19-7s6.8-12.7 6.8-19.9-1.5-13-4.3-17.3-7.4-7.9-13.8-10.8l-6.2-2.7a16.3 16.3 90 01-6.3-4.4c-1.2-1.7-1.8-4-1.8-7 0-5.9 2.5-8.8 7.4-8.8 2.8 0 4.4.2 5.6 2.8s1.8 5.4 1.7 8.3H229c-.2-8.7-2.4-15.3-6.6-20s-9.8-7-17.6-7-14.1 2.4-18.5 7.1-6.6 11.7-6.6 18.5 1.2 12.1 3.8 15.9 6.7 7 12.5 9.8l6.4 3.1a18.3 18.3 90 017.4 5.3c1.4 2 2.2 3.7 2.2 7.5s-.6 6.6-1.7 8.3-3 2.6-5.8 2.6c-5.4 0-8.2-4-8.3-11.8H178.8c.2 8.8 2.4 15.7 6.7 20.4S196 230 204.1 230Z" fill="white"/>
</svg>
