<svg viewBox="0 0 91 88" fill="none" xmlns="http://www.w3.org/2000/svg">
<path d="M69.8.8h-48C10.1.8.6 9.9.6 21.1V67.2c0 11.3 9.5 20.4 21.2 20.4h48c11.7 0 21.1-9.1 21.1-20.4V21.1C90.9 9.9 81.5.8 69.8.8Z" fill="#663399"/>
<path d="M32.8 80.6c1.7.1 3.4-.3 4.9-1 1.5-.7 2.7-1.8 3.5-3.1.8-1.4 1.3-3.1 1.3-5.1v-1H35.8v.9c0 .9-.2 1.9-.7 2.7-.5.6-1.2.9-2.1.9-1.9 0-2.9-1.4-2.9-4V58.2c0-1.1.2-2.2.6-3.2.5-.7 1.2-1.1 2.3-1.1.4 0 .8.1 1.1.2.4.2.7.4.9.7.5.6.8 1.5.8 2.7v1.1h6.7V57.4c0-3.1-.9-5.4-2.6-6.9-1.6-1.6-3.9-2.4-6.7-2.4-2.9 0-5.3.8-7.1 2.3-1.8 1.5-2.6 3.8-2.6 6.7V71.7c0 3 .8 5.2 2.5 6.7s3.9 2.2 6.8 2.2Zm21.2 0c2.9 0 5.2-.8 6.9-2.4 1.6-1.6 2.4-3.9 2.4-6.9 0-2.5-.5-4.5-1.5-6s-2.7-2.7-5-3.8l-2.2-.9c-.9-.3-1.7-.8-2.3-1.5-.5-.6-.7-1.4-.7-2.5 0-2 .9-3 2.7-3 1 0 1.7.3 2 1 .4.9.6 1.9.6 2.9H63c-.1-3.1-.9-5.4-2.4-7s-3.6-2.4-6.4-2.4c-2.8 0-5 .8-6.6 2.5-1.6 1.6-2.4 3.7-2.4 6.4 0 2.3.4 4.2 1.3 5.5 1 1.3 2.5 2.4 4.6 3.4L53.4 67c1 .3 1.9 1 2.7 1.8.5.7.7 1.6.7 2.6 0 1.3-.2 2.3-.6 2.9-.4.6-1.1.9-2.1.9-1.9 0-2.9-1.4-3-4.1H44.8c.1 3.1.9 5.4 2.5 7.1 1.5 1.6 3.8 2.4 6.7 2.4Zm20.4 0c2.9 0 5.2-.8 6.8-2.4 1.7-1.6 2.5-3.9 2.5-6.9 0-2.5-.5-4.5-1.5-6-1.1-1.5-2.7-2.7-5-3.8l-2.3-.9c-.8-.3-1.6-.8-2.3-1.5-.4-.6-.6-1.4-.6-2.5 0-2 .9-3 2.7-3 .9 0 1.6.3 2 1 .4.9.6 1.9.6 2.9h6c0-3.1-.8-5.4-2.3-7s-3.7-2.4-6.4-2.4c-2.8 0-5 .8-6.7 2.5-1.6 1.6-2.4 3.7-2.4 6.4 0 2.3.5 4.2 1.4 5.5.9 1.3 2.4 2.4 4.5 3.4L73.8 67c1 .3 1.9 1 2.6 1.8.6.7.8 1.6.8 2.6 0 1.3-.2 2.3-.6 2.9-.4.6-1.1.9-2.1.9-1.9 0-2.9-1.4-3-4.1H65.2c.1 3.1.9 5.4 2.4 7.1 1.6 1.6 3.8 2.4 6.8 2.4Z" fill="white"/>
</svg>
