<svg viewBox="0 0 91 88" fill="none" xmlns="http://www.w3.org/2000/svg">
<path d="M69.7717 0.812256H21.7696C10.0737 0.812256 0.592224 9.9165 0.592224 21.1471V67.2396C0.592224 78.4702 10.0737 87.5744 21.7696 87.5744H69.7717C81.4676 87.5744 90.949 78.4702 90.949 67.2396V21.1471C90.949 9.9165 81.4676 0.812256 69.7717 0.812256Z" fill="#663399"/>
<path d="M74.3722 80.6247C71.4455 80.6247 69.2074 79.8074 67.6406 78.165C66.091 76.514 65.2841 74.1584 65.2118 71.0818H71.5187C71.5548 73.8026 72.5506 75.1665 74.5077 75.1665C75.5052 75.1665 76.2118 74.8629 76.6193 74.2625C77.0178 73.6638 77.2265 72.7068 77.2265 71.395C77.2265 70.3521 76.9546 69.4827 76.4287 68.7965C75.7151 67.9801 74.7991 67.3494 73.765 66.9623L71.4274 65.8838C69.3438 64.9277 67.8303 63.7981 66.8969 62.4767C65.9907 61.164 65.538 59.322 65.538 56.9673C65.538 54.3332 66.3358 52.1954 67.9207 50.5521C69.5516 48.9097 71.7717 48.0933 74.6071 48.0933C77.3449 48.0933 79.4647 48.901 80.9592 50.5087C82.4817 52.126 83.2786 54.4373 83.3428 57.4618H77.2717C77.3079 56.4728 77.1 55.4906 76.6645 54.5935C76.3212 53.9341 75.6498 53.6035 74.6532 53.6035C72.8777 53.6035 71.9895 54.6195 71.9895 56.6445C71.9895 57.6709 72.2063 58.47 72.6418 59.0782C73.2692 59.7511 74.0552 60.27 74.9342 60.5914L77.1723 61.5388C79.4827 62.5556 81.1498 63.799 82.1736 65.3025C83.2064 66.7975 83.7142 68.7965 83.7142 71.2995C83.7142 74.298 82.8982 76.6007 81.2402 78.2084C79.5912 79.8161 77.2988 80.6247 74.3731 80.6247H74.3722ZM54.0039 80.6247C51.0764 80.6247 48.8391 79.8074 47.2714 78.165C45.7218 76.514 44.9158 74.1584 44.8436 71.0818H51.1496C51.1857 73.8026 52.1823 75.1665 54.1404 75.1665C55.1361 75.1665 55.8427 74.8629 56.2412 74.2625C56.6496 73.6638 56.8484 72.7068 56.8484 71.395C56.8484 70.3521 56.5863 69.4827 56.0605 68.7965C55.3469 67.9801 54.4309 67.3494 53.3967 66.9623L51.0592 65.8838C48.9747 64.9277 47.4621 63.7981 46.5287 62.4767C45.6224 61.164 45.1697 59.322 45.1697 56.9673C45.1697 54.3332 45.9667 52.1954 47.5525 50.5521C49.1834 48.9097 51.4035 48.0933 54.2389 48.0933C56.9758 48.0933 59.0955 48.901 60.5819 50.5087C62.1225 52.126 62.9104 54.4373 62.9737 57.4618H56.9035C56.9396 56.4728 56.7318 55.4906 56.2963 54.5935C55.952 53.9341 55.2816 53.6035 54.2849 53.6035C52.5085 53.6035 51.6203 54.6195 51.6203 56.6445C51.6203 57.6709 51.8381 58.47 52.2727 59.0782C52.9 59.7511 53.6861 60.27 54.5651 60.5914L56.8032 61.5388C59.1136 62.5556 60.7807 63.799 61.8053 65.3025C62.8291 66.7975 63.345 68.7965 63.345 71.2995C63.345 74.298 62.521 76.6007 60.872 78.2084C59.2229 79.8161 56.9306 80.6247 54.0039 80.6247ZM32.7927 80.6247C29.9284 80.6247 27.655 79.8769 25.9698 78.3819C24.2847 76.8966 23.4507 74.6624 23.4507 71.7073V57.1061C23.4507 54.1692 24.3389 51.9438 26.1144 50.4142C27.9179 48.9019 30.2826 48.1375 33.2092 48.1375C36.0455 48.1375 38.2828 48.9192 39.9408 50.4662C41.6178 52.0219 42.4599 54.3341 42.4599 57.4193V58.575H35.7826V57.454C35.7826 56.2637 35.5106 55.3856 34.9847 54.8121C34.7551 54.5254 34.458 54.2948 34.1179 54.1392C33.7778 53.9836 33.4042 53.9074 33.0276 53.9167C31.9406 53.9167 31.1708 54.2725 30.7353 54.9943C30.2717 55.9929 30.0635 57.0835 30.1281 58.175V70.8649C30.1281 73.5154 31.0985 74.8629 33.0285 74.8889C33.9339 74.8889 34.6134 74.5757 35.085 73.9501C35.5972 73.1599 35.841 72.2364 35.7826 71.3074V70.3608H42.4599V71.3516C42.4599 73.4113 42.0434 75.1318 41.2004 76.5053C40.3991 77.8457 39.1964 78.9237 37.7487 79.5992C36.2027 80.3078 34.5054 80.659 32.7927 80.6247Z" fill="white"/>
</svg>
