<svg xmlns="http://www.w3.org/2000/svg" fill="none" viewBox="0 0 256 256"><rect width="256" height="256" fill="#5865F2" rx="60"/><g clip-path="url(#clip0_158_82)"><path fill="#fff" d="M161.3 156.1c10.1 0 18-9 18-20.1.1-11-7.9-20.2-18-20.2-10 0-18 9.1-18 20.2s8.1 20.1 18 20.1Zm-66.5 0c10 0 18-9 18-20.1.2-11-7.9-20.2-18-20.2-10 0-17.9 9.1-17.9 20.2s8.1 20.1 17.9 20.1ZM197.3 64.8c.1 0 .2.1.3.2 22.6 33.3 33.7 70.7 29.5 113.9 0 .2-.1.3-.2.4-17.1 12.6-33.7 20.2-50 25.3-.3.1-.6 0-.7-.3-3.8-5.2-7.2-10.8-10.3-16.6-.1-.3 0-.7.4-.9 5.4-2 10.6-4.5 15.6-7.4.4-.2.4-.8.1-1.1-1.1-.7-2.2-1.6-3.2-2.4-.1-.1-.4-.2-.6-.1-32.4 15-67.8 15-100.5 0-.2-.1-.5 0-.7.1-1 .8-2 1.7-3.1 2.4-.3.3-.3.9.1 1.1 5 2.9 10.2 5.4 15.6 7.4.4.2.5.6.3.9-2.9 5.9-6.3 11.4-10.2 16.6-.1.3-.4.4-.7.3-16.2-5.1-32.8-12.7-49.9-25.3-.2-.1-.3-.3-.3-.4-3.5-37.4 3.6-75.1 29.6-113.9 0-.1.1-.2.2-.2 12.8-5.9 26.5-10.2 40.8-12.6.2-.1.5 0 .6.3 1.8 3.1 3.8 7.1 5.2 10.4 15-2.3 30.3-2.3 45.7 0 1.3-3.2 3.3-7.3 5-10.4.2-.3.4-.4.7-.3 14.3 2.4 28 6.7 40.7 12.6Z"/></g><defs><clipPath id="clip0_158_82"><rect width="200" height="154.93" fill="#fff" transform="translate(28 51)"/></clipPath></defs></svg>