<svg xmlns="http://www.w3.org/2000/svg" fill="none" viewBox="0 0 256 256"><rect width="256" height="256" fill="#242938" rx="60"/><path fill="#fff" d="M228 182.9c-13.6-18.1-26.7-35.8-40-53.4-.6-.5-1.1-1.2-1.4-1.9s-.5-1.5-.5-2.2c0-.8.2-1.6.5-2.3s.8-1.4 1.4-1.9c7.2-8.9 14-18.2 21-27.3l15.5-20.6c-2.7-1.1-5.8-1.1-8.5-.1-2.8 1.1-5 3.1-6.4 5.7-9.5 13.4-19.7 26.4-30 40-10.2-13.7-20.5-26.6-29.8-40.2-1.6-2.6-4-4.6-6.9-5.6s-6-1-8.9 0l40 52.1-43 57.7c2.8 1 5.8.9 8.6-.1 2.8-1.1 5-3.2 6.4-5.8 10.4-15.3 21.9-30 33.3-45.4l4.2 5.6c9.6 13.2 19.6 26.2 28.7 39.7 1.5 2.8 3.9 4.9 6.8 6s6.1 1.1 9 0Z"/><path fill="#fff" d="M37.4 122.1l-.1-.1c1.1-26.4 18.3-44.2 42.3-43.9 21.6.2 37.8 18.4 38.3 44H37.4ZM28 124.5c0 3.2 0 6.4.1 9.7.3 1.8 1.1 3.6 1.1 5.5.9 12 5.7 23.2 13.6 32.2 8.1 7.5 18.3 12.3 29.2 13.7 11 1.4 22.1-.7 31.7-5.9 5.9-3.6 10.9-8.3 14.6-14.1 3.7-5.7 6.1-12.1 7-18.9-5.3-1.6-8.1-.7-9.8 4.9-1.3 5.4-4 10.5-7.7 14.7-3.8 4.2-8.5 7.3-13.8 9.2-32.6 10.9-58.2-10.4-56.7-45.8h88.9c.8-19.8-3.1-37.3-18.9-49.7-27-21.2-66.2-7-75.8 27.2-1.6 5.7-2.3 11.7-3.5 17.3Z"/></svg>