<svg xmlns="http://www.w3.org/2000/svg" fill="none" viewBox="0 0 256 256"><rect width="256" height="256" fill="#242938" rx="60"/><g clip-path="url(#clip0_4_180)"><path fill="#0ACF83" d="M94.3 228C75.9 228 61 213 61 194.6s14.9-33.3 33.3-33.3h33.3v33.4c0 18.4-14.9 33.3-33.3 33.3Z"/><path fill="#A259FF" d="M61 128c0-18.4 14.9-33.3 33.3-33.3H127.7V161.3H94.3c-18.4 0-33.3-14.9-33.3-33.3Z"/><path fill="#F24E1E" d="M61.0133 61.3333C61.0133 42.9333 75.9467 28 94.3467 28H127.68V94.6667H94.3467C75.9467 94.6667 61.0133 79.7333 61.0133 61.3333Z"/><path fill="#FF7262" d="M127.7 28H161c18.4 0 33.3 14.9 33.3 33.3 0 18.4-14.9 33.4-33.3 33.4H127.7V28Z"/><path fill="#1ABCFE" d="M194.3 128a1 1 0 01-66.6 0 1 1 0 0166.6 0Z"/></g><defs><clipPath id="clip0_4_180"><rect width="133.36" height="200" fill="#fff" transform="translate(61 28)"/></clipPath></defs></svg>