<svg viewBox="0 0 256 256" fill="none" xmlns="http://www.w3.org/2000/svg">
<rect width="256" height="256" rx="60" fill="#242938"/>
<path d="M103.5 191.8c-.2-.8-1.2-1.3-2.4-1.1-1.2.2-2 1-1.9 1.8.2.8 1.2 1.3 2.4 1.1 1.2-.2 2-1 1.9-1.8Zm-8.3.3c0-.8-.9-1.5-2.1-1.5-1.2.1-2.2.7-2.2 1.6 0 .8 1 1.4 2.2 1.4 1.2 0 2.2-.7 2.1-1.5Zm-8.4-.9c.3-.8-.5-1.8-1.6-2.1-1.1-.3-2.3 0-2.5.8-.2.8.5 1.7 1.6 2.1 1.2.3 2.3-.1 2.5-.8ZM79.5 189c.5-.6.3-1.8-.6-2.6-.9-.8-2-1-2.6-.4-.5.6-.3 1.8.6 2.6.8.8 2 1 2.6.4Zm-5.8-6.5c.7-.5.7-1.5.1-2.4-.7-.9-1.7-1.3-2.3-.9-.6.4-.6 1.5 0 2.4s1.6 1.3 2.2.9Zm-3.3-5.7c.5-.4.3-1.3-.3-2-.7-.7-1.6-.9-2.1-.5-.4.5-.3 1.4.3 2.1.7.7 1.6.9 2.1.4Zm-4.9-4.3c.2-.5-.2-1.2-.9-1.6-.8-.3-1.5-.2-1.8.4-.2.5.2 1.1.9 1.5.8.3 1.5.1 1.8-.3ZM128 30c55.2 0 100 44.8 100 100 0 44.2-28.6 81.6-68.3 94.9-5.1 1-6.9-2.2-6.9-4.8 0-3.3.1-14.1.1-27.5 0-9.3-3.2-15.4-6.8-18.5 22.3-2.5 45.7-10.9 45.7-49.3 0-10.9-3.9-19.9-10.3-26.9 1-2.5 4.5-12.7-1-26.4 0 0-8.4-2.7-27.4 10.2-8-2.2-16.6-3.3-25.1-3.3s-17.1 1.1-25 3.3C83.9 68.8 75.5 71.5 75.5 71.5c-5.5 13.7-2 23.9-1 26.4-6.4 7-10.3 16-10.3 26.9 0 38.3 23.3 46.9 45.6 49.4-2.9 2.5-5.5 6.9-6.4 13.4-5.7 2.5-20.2 6.9-29.1-8.3 0 0-5.3-9.6-15.3-10.3 0 0-9.8-.2-.7 6 0 0 6.5 3.1 11.1 14.7 0 0 5.9 17.8 33.7 11.8 0 8.3.1 16.2.1 18.6 0 2.6-1.8 5.7-6.8 4.8C56.7 211.7 28 174.2 28 130 28 74.8 72.8 30 128 30Z" fill="white"/>
</svg>
