<svg xmlns="http://www.w3.org/2000/svg" fill="none" viewBox="0 0 256 256"><rect width="256" height="256" fill="#300" rx="60"/><path fill="#FF9A00" d="M123.7 152.3H84.1l-8.2 25.1c-.2 1-1 1.6-2 1.5h-20c-1.2 0-1.5-.6-1.2-1.9L87 78.1c.4-1.1.7-2.2 1.1-3.5.4-2.3.6-4.6.6-7-.1-.5.4-1 .9-1.1h.3 27.3c.9 0 1.3.3 1.4.8l38.9 109.9c.4 1.2 0 1.7-1 1.7H134.2c-.8.1-1.5-.4-1.7-1.2l-8.8-25.4ZM90.2 130.7h27.1c-.6-2.3-1.5-4.9-2.4-7.7-1-2.9-1.9-6-2.9-9.2-1.1-3.3-2-6.5-3.1-9.8s-2-6.4-2.9-9.5c-.8-3-1.6-5.7-2.3-8.3h-.2c-1 4.6-2.2 9.2-3.7 13.8-1.6 5.1-3.2 10.4-4.9 15.7-1.5 5.5-3.1 10.5-4.7 15Zm79.2 47c0 1.1.5 1.7 1.6 1.7h20.9c1 0 1.4-.5 1.4-1.7V95.6c0-1-.4-1.5-1.4-1.5H170.8c-1 0-1.4.4-1.4 1.5v82.1Zm11.9-92.6c3.7.2 7.3-1.1 9.7-3.7 2.6-2.7 3.9-6.2 3.8-9.8.1-3.5-1.2-6.9-3.5-9.5-2.4-2.5-5.6-3.7-9.8-3.7-3.5 0-6.9 1.2-9.4 3.7-2.6 2.4-4 5.9-3.9 9.5-.1 3.6 1.2 7.1 3.6 9.8 2.6 2.5 6 3.8 9.5 3.7Z"/></svg>