<svg xmlns="http://www.w3.org/2000/svg" fill="none" viewBox="0 0 256 256"><rect width="256" height="256" fill="#242938" rx="60"/><path fill="#fff" d="M121.5 28.1c-.5 0-1.8.1-3.1.2-28.4 2.6-55 17.9-71.8 41.5-9.4 13.1-15.4 27.9-17.7 43.7-.8 5.5-.9 7.1-.9 14.5 0 7.5.1 9.1.9 14.6 5.4 37.6 32.2 69.1 68.4 80.8 6.5 2.1 13.3 3.5 21.1 4.4 3.1.3 16.1.3 19.2 0 13.4-1.5 24.8-4.8 36-10.6 1.7-.8 2.1-1.1 1.8-1.3-.1-.1-7.5-9.9-16.3-21.8l-15.9-21.6-20.1-29.7c-11-16.3-20.1-29.6-20.2-29.6 0 0-.1 13.2-.2 29.2 0 28.2 0 29.3-.4 30-.5 1-.9 1.4-1.7 1.8-.6.3-1.2.4-4.1.4H93.1l-.9-.6c-.6-.4-1-.9-1.3-1.4l-.4-.9V132.5l.1-39.2.6-.8c.3-.4.9-.9 1.4-1.2.8-.4 1.1-.4 4.5-.4 4 0 4.7.1 5.7 1.3.3.3 11.1 16.6 24.1 36.3s30.8 46.6 39.5 59.8l15.8 24 .8-.6c7.1-4.6 14.6-11.1 20.6-18 12.6-14.5 20.8-32.2 23.5-51.1.8-5.5.9-7.1.9-14.6 0-7.4-.1-9-.9-14.5-5.4-37.6-32.2-69.1-68.4-80.8-6.4-2.1-13.2-3.5-20.8-4.4-1.9-.2-14.8-.4-16.4-.2Zm40.9 60.4c.9.5 1.7 1.4 2 2.3.1.6.2 11.4.1 35.9v35.2l-6.2-9.5-6.3-9.5V117.3c0-16.5.1-25.8.2-26.2.4-1.1 1-2 2-2.5.8-.4 1.1-.4 4.1-.4 2.9 0 3.4 0 4.1.3Z"/></svg>