<svg xmlns="http://www.w3.org/2000/svg" fill="none" viewBox="0 0 256 256"><rect width="256" height="256" fill="#242938" rx="60"/><path fill="#81CD39" d="M119.9 31.1C124.8 28.3 131.2 28.3 136.1 31.1 160.8 45.1 185.6 59 210.3 73 214.9 75.6 218 80.8 218 86.2V170.2C218 175.8 214.6 181.1 209.7 183.6 185.1 197.5 160.4 211.4 135.8 225.3 130.8 228.2 124.3 228 119.4 224.9 112 220.6 104.6 216.3 97.2 212.1 95.7 211.2 94 210.4 92.9 209 93.9 207.7 95.6 207.6 96.9 207 100 206 102.8 204.4 105.7 202.9 106.4 202.4 107.3 202.6 108 203 114.3 206.7 120.5 210.4 126.9 214 128.2 214.8 129.6 213.7 130.8 213.1 154.9 199.4 179.1 185.8 203.3 172.1 204.2 171.7 204.7 170.8 204.6 169.8 204.7 142 204.6 114.3 204.6 86.6 204.7 85.5 204.1 84.5 203.1 84 178.5 70.2 154 56.3 129.4 42.5 128.6 41.9 127.4 41.9 126.6 42.5 102 56.3 77.5 70.2 52.9 84 51.9 84.5 51.2 85.5 51.4 86.6 51.4 114.3 51.4 142 51.4 169.8 51.3 170.8 51.8 171.7 52.7 172.1 59.2 175.8 65.8 179.5 72.4 183.2 76.1 185.2 80.6 186.4 84.7 184.9 88.2 183.6 90.8 179.9 90.7 176.1 90.7 148.5 90.7 121 90.7 93.4 90.6 92.2 91.8 91.2 93 91.3 96.1 91.3 99.3 91.2 102.4 91.3 103.7 91.3 104.6 92.6 104.5 93.8 104.5 121.6 104.5 149.3 104.5 177 104.5 184.4 101.4 192.5 94.6 196.1 86.2 200.4 75.8 199.5 67.4 195.3 60.2 191.7 53.4 187.5 46.3 183.6 41.4 181.1 38 175.8 38 170.2V86.2C37.9 80.7 41.2 75.4 46 72.8 70.6 58.9 95.2 45 119.9 31.1Z"/><path fill="#81CD39" d="M141.4 89.3c-7.8.8-16 3-21.6 8.7-5.8 5.7-7.1 15-4.3 22.4 2 5.3 6.9 8.8 12.1 10.6 12.6 4.6 26.5 3.1 39.3 7.1 2.5.9 5.4 2.2 6.1 4.9.7 3.3 0 7.1-2.6 9.4-5 4-11.8 4.1-17.8 4.4-7.3-.1-15.3.1-21.7-4-3.3-2.2-4.7-6.2-5.3-10-.1-1.2-1-2.3-2.3-2.2-3.1 0-6.3 0-9.4 0-1.1-.1-2.2.7-2.3 1.9-.2 6.7 2.3 13.8 7.5 18.3 6 5.3 14.2 7.4 22.1 8.3 8.3.8 16.9.7 25.1-1.1 6.2-1.4 12.4-4.1 16.6-9 5.3-5.9 6.3-14.7 4-22.1-1.8-5.5-7-9-12.2-10.8-12.7-4.5-26.5-4.2-39.4-7.5-2.2-.8-5-1.5-6-3.9-1.1-3.3-.2-7.4 2.8-9.5 3.9-2.7 8.8-3.1 13.4-3.3 6.3-.1 12.9-.2 18.7 2.7 3.7 1.9 5.9 5.8 6.8 9.8.2 1.2.9 2.4 2.3 2.3 3.1.1 6.2.1 9.3.1 1.1 0 2.2-.6 2.5-1.7-.2-8.3-4.3-16.8-11.8-20.9-9.7-5.3-21.2-5.6-31.9-4.9"/></svg>