<?xml version="1.0" encoding="UTF-8"?>
<svg fill="none" viewBox="0 0 256 256" xmlns="http://www.w3.org/2000/svg">
<g clip-path="url(#k)">
<path d="m196 0h-136c-33.137 0-60 26.863-60 60v136c0 33.137 26.863 60 60 60h136c33.137 0 60-26.863 60-60v-136c0-33.137-26.863-60-60-60z" fill="#242938"/>
<g clip-path="url(#j)">
<mask id="i" x="28" y="28" width="201" height="201" style="mask-type:luminance" maskUnits="userSpaceOnUse">
<path d="m28.078 28.078h200v200h-200v-200z" fill="#fff"/>
</mask>
<g mask="url(#i)">
<path d="m177.34 213.78c-1.211 9.141-10.156 16.25-19.023 13.789-12.657-3.476-27.305-8.906-40.469-9.922l-20.195-1.562c-3.257-0.227-6.3163-1.645-8.5938-3.984l-34.766-35.821c-1.8649-1.908-3.112-4.333-3.5788-6.96-0.4668-2.626-0.1317-5.333 0.9616-7.766 0 0 21.484-47.266 22.305-49.727 0.7812-2.461 3.75-23.906 5.4687-35.39 0.4688-3.0859 1.9532-5.8594 4.2969-7.9297l41.133-37.031c1.356-1.2183 2.948-2.1452 4.677-2.7233s3.559-0.7952 5.375-0.6377c1.816 0.1574 3.581 0.686 5.184 1.5531 1.604 0.867 3.013 2.0541 4.139 3.4876l34.531 43.906c1.921 2.5133 2.964 5.5871 2.969 8.75 0 8.3203 0.703 25.39 5.313 36.406 4.492 10.664 12.695 22.265 16.992 27.929 0.818 1.06 1.302 2.338 1.393 3.673 0.09 1.336-0.218 2.668-0.885 3.827-5.575 9.355-11.411 18.551-17.5 27.579-5.86 8.711-8.555 19.492-9.766 28.554h0.039z" fill="#6C31E3"/>
<path d="m92.805 214.84c16.172-32.813 15.703-56.328 8.8283-73.047-6.3283-15.469-18.086-25.195-27.344-31.25-0.2344 0.899-0.5078 1.719-0.8594 2.539l-21.758 48.516c-1.0983 2.43-1.4397 5.134-0.9799 7.76 0.4598 2.627 1.6996 5.054 3.558 6.966l34.805 35.821c1.0798 1.124 2.3492 2.05 3.75 2.734v-0.039z" fill="url(#h)"/>
<path d="m136.75 148.23c4.375 0.469 8.672 1.407 12.813 2.969 13.281 4.961 25.39 16.094 35.351 37.617 0.703-1.211 1.406-2.422 2.188-3.593 6.082-9.033 11.918-18.229 17.5-27.579 0.683-1.155 1-2.489 0.909-3.828s-0.585-2.619-1.417-3.672c-4.297-5.703-12.5-17.265-16.992-27.929-4.61-11.016-5.274-28.125-5.313-36.406 0-3.1641-1.015-6.25-2.969-8.75l-34.57-43.906c-0.188-0.2278-0.383-0.4492-0.586-0.664 2.275 6.8114 2.546 14.133 0.781 21.094-1.673 5.6205-3.98 11.033-6.875 16.133l-2.812 5.5468c-4.509 8.5851-7.095 18.049-7.578 27.734-0.469 11.484 1.875 25.937 9.57 45.234z" fill="url(#g)"/>
<path d="m136.75 148.23c-7.695-19.297-10.078-33.75-9.57-45.273 0.483-9.6853 3.069-19.149 7.578-27.734 0.898-1.875 1.875-3.711 2.812-5.5078 2.774-5.4297 5.469-10.547 6.875-16.172 1.765-6.961 1.494-14.282-0.781-21.094-2.37-2.6116-5.678-4.1769-9.201-4.3527-3.522-0.1757-6.97 1.0525-9.588 3.4152l-41.172 37.031c-2.2963 2.0691-3.8016 4.8725-4.2578 7.9297l-5 33.203-0.1953 0.898c9.2969 6.055 21.094 15.781 27.383 31.25 1.3 3.133 2.319 6.375 3.047 9.688 10.937-2.657 21.758-4.297 32.07-3.243v-0.039z" fill="url(#f)"/>
<path d="m158.31 227.61c8.867 2.422 17.812-4.687 19.023-13.828 1.008-8.707 3.575-17.162 7.578-24.961-10-21.484-22.07-32.656-35.312-37.617-14.063-5.234-29.375-3.515-44.922 0.274 3.476 15.781 1.406 36.445-11.875 63.359 1.5625 0.703 3.1641 1.172 4.8828 1.289 0 0 9.5315 0.781 20.938 1.602 11.328 0.781 28.281 6.679 39.688 9.843v0.039z" fill="url(#e)"/>
<path d="m127.26 102.22c-0.508 11.406 0.937 24.531 8.633 43.789l-2.422-0.196c-6.914-20.117-8.399-30.468-7.891-42.031 0.594-9.8403 3.312-19.435 7.969-28.125 0.937-1.914 3.125-5.5078 4.102-7.3437 2.773-5.3516 4.648-8.2031 6.25-13.125 2.226-6.8359 1.757-10.117 1.484-13.32 1.797 11.68-4.961 21.875-10.039 32.188-4.67 8.6911-7.427 18.281-8.086 28.125v0.039z" clip-rule="evenodd" fill="url(#d)" fill-rule="evenodd"/>
<path d="m103.9 142.61c0.938 2.11 1.797 3.828 2.344 6.446l-2.07 0.429c-0.82-3.046-1.485-5.234-2.656-7.812-6.9535-16.406-18.086-24.844-27.227-31.055 11.016 5.938 22.344 15.235 29.57 31.992h0.039z" clip-rule="evenodd" fill="url(#c)" fill-rule="evenodd"/>
<path d="m106.36 151.09c3.829 17.969-0.468 40.703-13.125 62.851 10.586-21.953 15.704-43.007 11.446-62.5l1.679-0.351z" clip-rule="evenodd" fill="url(#b)" fill-rule="evenodd"/>
<path d="m150.07 149.48c20.742 7.774 28.75 24.844 34.727 39.063-7.422-14.883-17.656-31.367-35.469-37.5-13.594-4.61-25.039-4.063-44.648 0.39l-0.43-1.953c20.781-4.726 31.641-5.273 45.82 0z" clip-rule="evenodd" fill="url(#a)" fill-rule="evenodd"/>
</g>
</g>
</g>
<defs>
<radialGradient id="h" cx="0" cy="0" r="1" gradientTransform="translate(91.047 211.59) rotate(255.31) scale(90.862 60.542)" gradientUnits="userSpaceOnUse">
<stop stop-color="#fff" stop-opacity=".4" offset="0"/>
<stop stop-opacity=".1" offset="1"/>
</radialGradient>
<radialGradient id="g" cx="0" cy="0" r="1" gradientTransform="translate(168.62 174.17) rotate(-82.485) scale(149.33 110.33)" gradientUnits="userSpaceOnUse">
<stop stop-color="#fff" stop-opacity=".6" offset="0"/>
<stop stop-color="#fff" stop-opacity=".1" offset="1"/>
</radialGradient>
<radialGradient id="f" cx="0" cy="0" r="1" gradientTransform="translate(96.516 147.92) rotate(-77.795) scale(127.49 87.113)" gradientUnits="userSpaceOnUse">
<stop stop-color="#fff" stop-opacity=".8" offset="0"/>
<stop stop-color="#fff" stop-opacity=".4" offset="1"/>
</radialGradient>
<radialGradient id="e" cx="0" cy="0" r="1" gradientTransform="translate(158.98 228.08) rotate(239.5) scale(73.894 84.946)" gradientUnits="userSpaceOnUse">
<stop stop-color="#fff" stop-opacity=".3" offset="0"/>
<stop stop-opacity=".3" offset="1"/>
</radialGradient>
<radialGradient id="d" cx="0" cy="0" r="1" gradientTransform="translate(149.09 78.078) rotate(102.24) scale(66.351 44.743)" gradientUnits="userSpaceOnUse">
<stop stop-color="#fff" stop-opacity="0" offset="0"/>
<stop stop-color="#fff" stop-opacity=".2" offset="1"/>
</radialGradient>
<radialGradient id="b" cx="0" cy="0" r="1" gradientTransform="translate(111.98 138.94) rotate(86.04) scale(50.903 108.1)" gradientUnits="userSpaceOnUse">
<stop stop-color="#fff" stop-opacity=".2" offset="0"/>
<stop stop-color="#fff" stop-opacity=".3" offset="1"/>
</radialGradient>
</defs>
</svg>
