<svg xmlns="http://www.w3.org/2000/svg" fill="none" viewBox="0 0 256 256"><rect width="256" height="256" fill="#242938" rx="60"/><path fill="#00D8FF" d="M128 147a1 1 0 000-37.4 1 1 0 000 37.4Z"/><path fill-rule="evenodd" stroke="#00D8FF" stroke-width="8.911" d="M128 90.4c-25.3 0-49.1 3.6-66.7 9.8C40.4 107.4 28 118.4 28 128.3c0 10.2 13.2 22.1 35.2 29.6 17.3 5.9 40.4 8.7 64.8 8.7 23.8 0 46.4-3 63.5-8.7 22.7-7.5 36.5-19.2 36.5-29.6 0-10-13-21-34.1-28.3-17.6-6-40.8-9.6-65.9-9.6Z" clip-rule="evenodd"/><path fill-rule="evenodd" stroke="#00D8FF" stroke-width="8.911" d="M95 109.4c-12.7 21.9-21.4 44.4-24.9 62.8-4.1 21.6-.8 37.9 7.8 42.8 8.8 5.1 25.7-.4 43.2-15.7 13.8-12.1 27.7-30.7 39.9-51.8 11.9-20.6 20.6-41.6 24.3-59.3 4.8-23.5 1.5-41.2-7.5-46.4-8.7-5-24.7.7-41.6 15.4-14 12.2-28.7 30.5-41.2 52.2Z" clip-rule="evenodd"/><path fill-rule="evenodd" stroke="#00D8FF" stroke-width="8.911" d="M95 147.6C82.5 125.9 73.9 104 70.4 85.8 66.1 63.8 69.1 47 77.7 42c9-5.2 26.1.9 44 16.7 13.5 12 27.4 30.1 39.3 50.7 12.2 21.1 21.4 42.5 24.9 60.4 4.5 22.8.9 40.2-8 45.3-8.5 5-24.2-.3-41-14.7-14.1-12.1-29.2-30.9-41.9-52.8Z" clip-rule="evenodd"/></svg>